<?xml version="1.0" encoding="UTF-8"?>
<!-- Generator: Adobe Illustrator 24.2.1, SVG Export Plug-In . SVG Version: 6.00 Build 0)  -->
<svg version="1.1" id="infrastructure-monitoring-1-b" xmlns="http://www.w3.org/2000/svg" xmlns:xlink="http://www.w3.org/1999/xlink" x="0px" y="0px" viewBox="0 0 841.9 595.3" style="enable-background:new 0 0 841.9 595.3;" xml:space="preserve">
<style type="text/css">
	.st0{display:none;}
	.st1{display:inline;fill:#618697;}
	.st2{opacity:0.1;enable-background:new    ;}
	.st3{fill:#E6E7E8;}
	.st4{fill:#FFFFFF;}
	.st5{fill:#FFA46B;}
	.st6{fill:#DB8447;}
	.st7{opacity:0.2;enable-background:new    ;}
	.st8{opacity:0.15;enable-background:new    ;}
	.st9{fill:#939598;}
	.st10{fill:#BCBEC0;}
	.st11{fill:#808080;}
	.st12{fill:#F8F8F8;}
	.st13{fill:#A7A9AC;}
	.st14{fill:#C6C7CE;}
	.st15{fill:#414042;}
	.st16{fill:#384659;}
	.st17{fill:#7FB83E;}
	.st18{fill:#FF4A4A;}
	.st19{fill:#C2FF61;}
	.st20{opacity:0.1;fill:#FFFFFF;enable-background:new    ;}
	.st21{fill:#3DABC1;}
	.st22{fill:#231F20;}
	.st23{fill:#9ECC3B;}
	.st24{fill:#FFD54A;}
	.st25{fill:#CC9E33;}
	.st26{fill:#4DE7FF;}
	.st27{fill:#4179EB;}
	.st28{fill:#3DC5CC;}
	.st29{fill:#4D88FF;}
	.st30{fill:#45DBE6;}
	.st31{fill:#4DF2FF;}
	.st32{fill:#D1D3D4;}
	.st33{opacity:0.25;fill:#FFFFFF;enable-background:new    ;}
	.st34{fill:#DEDEDE;}
	.st35{fill:#FFB940;}
	.st36{fill:#6DFF40;}
	.st37{fill:#E8B197;}
	.st38{fill:#664733;}
	.st39{fill:#C26138;}
	.st40{fill:#B5492B;}
	.st41{opacity:0.25;enable-background:new    ;}
	.st42{fill:#2B2A2B;}
	.st43{fill:#353436;}
	.st44{fill:#33302E;}
	.st45{fill:#575757;}
	.st46{fill:#58595B;}
</style>
<g id="Group_7194" class="st0">
	<rect id="background" class="st1" width="841.9" height="595.3"/>
</g>
<g id="Group_7668">
	<path id="Path_6429" class="st2" d="M488.5,504.2h238.1L676,461.5H165.9l-50.7,42.7h236l-16.8,39c-3.2,7.5,0.2,16.2,7.7,19.4   c1.8,0.8,3.8,1.2,5.8,1.2h143.8c8.2,0,14.8-6.6,14.8-14.8c0-2-0.4-4-1.2-5.8L488.5,504.2z"/>
	<g id="Group_7629">
		<g id="Group_7196">
			<rect id="Rectangle_1249" x="167.1" y="302.8" class="st3" width="505.5" height="13.8"/>
			<g id="Group_7195">
				<rect id="Rectangle_1250" x="184.3" y="316.6" class="st4" width="14.9" height="151"/>
				<rect id="Rectangle_1251" x="640.6" y="316.6" class="st4" width="14.9" height="151"/>
			</g>
		</g>
		<path id="Path_6430" class="st5" d="M167.1,302.8l-36,30.3h577.6l-36-30.3H167.1z"/>
		<g id="Group_7198">
			<rect id="Rectangle_1252" x="131.1" y="333.1" class="st6" width="577.6" height="16"/>
			<g id="Group_7197">
				<rect id="Rectangle_1253" x="151" y="349.2" class="st4" width="17.2" height="148.8"/>
				<rect id="Rectangle_1254" x="671.5" y="349.2" class="st4" width="17.2" height="148.8"/>
			</g>
		</g>
		<path id="Path_6431" class="st7" d="M151,349.2v4.6l17.2,9.6v-14.2H151z"/>
		<path id="Path_6432" class="st7" d="M184.3,349.2v4.6l14.9,8.3v-12.9H184.3z"/>
		<path id="Path_6433" class="st7" d="M671.5,349.2v4.6l17.2,9.6v-14.2H671.5z"/>
		<path id="Path_6434" class="st7" d="M640.6,349.2v4.6l14.9,8.3v-12.9H640.6z"/>
		<g id="Group_7521">
			<g id="Group_7519">
				<g id="Group_7202">
					<g id="Group_7201">
						<path id="Path_6435" class="st8" d="M486.4,309.8H299.2l-7.9,20.4H493L486.4,309.8z"/>
						<g id="Group_7199">
							<rect id="Rectangle_1255" x="293.8" y="325" class="st9" width="196.9" height="3.5"/>
						</g>
						<g id="Group_7200">
							<path id="Path_6436" class="st10" d="M490.7,325H293.8l6.6-17h184.8L490.7,325z"/>
						</g>
					</g>
				</g>
				<g id="Group_7518">
					<g id="Group_7205">
						<g id="Group_7203">
							<path id="Path_6437" class="st11" d="M299.8,315.4v-0.5h7.4l-0.2,0.5H299.8z"/>
						</g>
						<g id="Group_7204">
							<path id="Path_6438" class="st12" d="M307.2,314.9h-7.4l0.8-2h7.3L307.2,314.9z"/>
						</g>
					</g>
					<g id="Group_7208">
						<g id="Group_7206">
							<path id="Path_6439" class="st11" d="M307.6,315.4l0.2-0.5h7.4l-0.2,0.5H307.6z"/>
						</g>
						<g id="Group_7207">
							<path id="Path_6440" class="st12" d="M315.2,314.9h-7.4l0.7-2h7.3L315.2,314.9z"/>
						</g>
					</g>
					<g id="Group_7211">
						<g id="Group_7209">
							<path id="Path_6441" class="st11" d="M315.7,315.4l0.2-0.5h7.4l-0.1,0.5H315.7z"/>
						</g>
						<g id="Group_7210">
							<path id="Path_6442" class="st12" d="M323.2,314.9h-7.4l0.6-2h7.3L323.2,314.9z"/>
						</g>
					</g>
					<g id="Group_7214">
						<g id="Group_7212">
							<path id="Path_6443" class="st11" d="M323.7,315.4l0.1-0.5h7.4l-0.1,0.5H323.7z"/>
						</g>
						<g id="Group_7213">
							<path id="Path_6444" class="st12" d="M331.2,314.9h-7.4l0.6-2h7.3L331.2,314.9z"/>
						</g>
					</g>
					<g id="Group_7217">
						<g id="Group_7215">
							<path id="Path_6445" class="st11" d="M331.8,315.4l0.1-0.5h7.4l-0.1,0.5H331.8z"/>
						</g>
						<g id="Group_7216">
							<path id="Path_6446" class="st12" d="M339.3,314.9h-7.4l0.5-2h7.3L339.3,314.9z"/>
						</g>
					</g>
					<g id="Group_7220">
						<g id="Group_7218">
							<path id="Path_6447" class="st11" d="M339.8,315.4l0.1-0.5h7.4l-0.1,0.5H339.8z"/>
						</g>
						<g id="Group_7219">
							<path id="Path_6448" class="st12" d="M347.3,314.9h-7.4l0.5-2h7.3L347.3,314.9z"/>
						</g>
					</g>
					<g id="Group_7223">
						<g id="Group_7221">
							<path id="Path_6449" class="st11" d="M347.8,315.4l0.1-0.5h7.4l-0.1,0.5H347.8z"/>
						</g>
						<g id="Group_7222">
							<path id="Path_6450" class="st12" d="M355.3,314.9h-7.4l0.4-2h7.3L355.3,314.9z"/>
						</g>
					</g>
					<g id="Group_7226">
						<g id="Group_7224">
							<path id="Path_6451" class="st11" d="M355.9,315.4l0.1-0.5h7.4l-0.1,0.5H355.9z"/>
						</g>
						<g id="Group_7225">
							<path id="Path_6452" class="st12" d="M363.3,314.9h-7.4l0.3-2h7.3L363.3,314.9z"/>
						</g>
					</g>
					<g id="Group_7229">
						<g id="Group_7227">
							<path id="Path_6453" class="st11" d="M363.9,315.4l0.1-0.5h7.4l-0.1,0.5H363.9z"/>
						</g>
						<g id="Group_7228">
							<path id="Path_6454" class="st12" d="M371.4,314.9H364l0.3-2h7.3L371.4,314.9z"/>
						</g>
					</g>
					<g id="Group_7232">
						<g id="Group_7230">
							<path id="Path_6455" class="st11" d="M371.9,315.4l0.1-0.5h7.4l0,0.5H371.9z"/>
						</g>
						<g id="Group_7231">
							<path id="Path_6456" class="st12" d="M379.4,314.9H372l0.2-2h7.3L379.4,314.9z"/>
						</g>
					</g>
					<g id="Group_7235">
						<g id="Group_7233">
							<path id="Path_6457" class="st11" d="M380,315.4l0-0.5h7.4l0,0.5H380z"/>
						</g>
						<g id="Group_7234">
							<path id="Path_6458" class="st12" d="M387.4,314.9H380l0.2-2h7.3L387.4,314.9z"/>
						</g>
					</g>
					<g id="Group_7238">
						<g id="Group_7236">
							<path id="Path_6459" class="st11" d="M388,315.4l0-0.5h7.4l0,0.5H388z"/>
						</g>
						<g id="Group_7237">
							<path id="Path_6460" class="st12" d="M395.4,314.9H388l0.1-2h7.3L395.4,314.9z"/>
						</g>
					</g>
					<g id="Group_7241">
						<g id="Group_7239">
							<path id="Path_6461" class="st11" d="M396,315.4l0-0.5h7.4v0.5H396z"/>
						</g>
						<g id="Group_7240">
							<path id="Path_6462" class="st12" d="M403.4,314.9H396l0-2h7.3L403.4,314.9z"/>
						</g>
					</g>
					<g id="Group_7244">
						<g id="Group_7242">
							<path id="Path_6463" class="st11" d="M404.1,315.4l0-0.5h15.4l0,0.5H404.1z"/>
						</g>
						<g id="Group_7243">
							<path id="Path_6464" class="st12" d="M419.5,314.9h-15.4l0-2h15.3L419.5,314.9z"/>
						</g>
					</g>
					<g id="Group_7247">
						<g id="Group_7245">
							<path id="Path_6465" class="st11" d="M299,317.5v-0.5h11.4l-0.2,0.5H299z"/>
						</g>
						<g id="Group_7246">
							<path id="Path_6466" class="st12" d="M310.3,317.1H299l0.8-2H311L310.3,317.1z"/>
						</g>
					</g>
					<g id="Group_7250">
						<g id="Group_7248">
							<path id="Path_6467" class="st11" d="M310.8,317.5l0.2-0.5h7.5l-0.1,0.5H310.8z"/>
						</g>
						<g id="Group_7249">
							<path id="Path_6468" class="st12" d="M318.4,317.1H311l0.7-2h7.4L318.4,317.1z"/>
						</g>
					</g>
					<g id="Group_7253">
						<g id="Group_7251">
							<path id="Path_6469" class="st11" d="M318.9,317.5l0.1-0.5h7.5l-0.1,0.5H318.9z"/>
						</g>
						<g id="Group_7252">
							<path id="Path_6470" class="st12" d="M326.5,317.1H319l0.6-2h7.4L326.5,317.1z"/>
						</g>
					</g>
					<g id="Group_7256">
						<g id="Group_7254">
							<path id="Path_6471" class="st11" d="M327,317.5l0.1-0.5h7.5l-0.1,0.5H327z"/>
						</g>
						<g id="Group_7255">
							<path id="Path_6472" class="st12" d="M334.6,317.1h-7.5l0.5-2h7.4L334.6,317.1z"/>
						</g>
					</g>
					<g id="Group_7259">
						<g id="Group_7257">
							<path id="Path_6473" class="st11" d="M335.1,317.5l0.1-0.5h7.5l-0.1,0.5H335.1z"/>
						</g>
						<g id="Group_7258">
							<path id="Path_6474" class="st12" d="M342.7,317.1h-7.5l0.5-2h7.4L342.7,317.1z"/>
						</g>
					</g>
					<g id="Group_7262">
						<g id="Group_7260">
							<path id="Path_6475" class="st11" d="M343.2,317.5l0.1-0.5h7.5l-0.1,0.5H343.2z"/>
						</g>
						<g id="Group_7261">
							<path id="Path_6476" class="st12" d="M350.8,317.1h-7.5l0.4-2h7.4L350.8,317.1z"/>
						</g>
					</g>
					<g id="Group_7265">
						<g id="Group_7263">
							<path id="Path_6477" class="st11" d="M351.3,317.5l0.1-0.5h7.5l-0.1,0.5H351.3z"/>
						</g>
						<g id="Group_7264">
							<path id="Path_6478" class="st12" d="M358.8,317.1h-7.5l0.4-2h7.4L358.8,317.1z"/>
						</g>
					</g>
					<g id="Group_7268">
						<g id="Group_7266">
							<path id="Path_6479" class="st11" d="M359.4,317.5l0.1-0.5h7.5l-0.1,0.5H359.4z"/>
						</g>
						<g id="Group_7267">
							<path id="Path_6480" class="st12" d="M366.9,317.1h-7.5l0.3-2h7.4L366.9,317.1z"/>
						</g>
					</g>
					<g id="Group_7271">
						<g id="Group_7269">
							<path id="Path_6481" class="st11" d="M367.5,317.5l0.1-0.5h7.5l0,0.5H367.5z"/>
						</g>
						<g id="Group_7270">
							<path id="Path_6482" class="st12" d="M375,317.1h-7.5l0.2-2h7.4L375,317.1z"/>
						</g>
					</g>
					<g id="Group_7274">
						<g id="Group_7272">
							<path id="Path_6483" class="st11" d="M375.6,317.5l0-0.5h7.5l0,0.5H375.6z"/>
						</g>
						<g id="Group_7273">
							<path id="Path_6484" class="st12" d="M383.1,317.1h-7.5l0.2-2h7.4L383.1,317.1z"/>
						</g>
					</g>
					<g id="Group_7277">
						<g id="Group_7275">
							<path id="Path_6485" class="st11" d="M383.7,317.5l0-0.5h7.5l0,0.5H383.7z"/>
						</g>
						<g id="Group_7276">
							<path id="Path_6486" class="st12" d="M391.2,317.1h-7.5l0.1-2h7.4L391.2,317.1z"/>
						</g>
					</g>
					<g id="Group_7280">
						<g id="Group_7278">
							<path id="Path_6487" class="st11" d="M391.8,317.5l0-0.5h7.5v0.5H391.8z"/>
						</g>
						<g id="Group_7279">
							<path id="Path_6488" class="st12" d="M399.3,317.1h-7.5l0.1-2h7.4L399.3,317.1z"/>
						</g>
					</g>
					<g id="Group_7283">
						<g id="Group_7281">
							<path id="Path_6489" class="st11" d="M399.9,317.5v-0.5h7.5l0,0.5H399.9z"/>
						</g>
						<g id="Group_7282">
							<path id="Path_6490" class="st12" d="M407.4,317.1h-7.5l0-2h7.4L407.4,317.1z"/>
						</g>
					</g>
					<g id="Group_7286">
						<g id="Group_7284">
							<path id="Path_6491" class="st11" d="M408,317.5l0-0.5h11.6l0,0.5H408z"/>
						</g>
						<g id="Group_7285">
							<path id="Path_6492" class="st12" d="M419.6,317.1H408l-0.1-2h11.5L419.6,317.1z"/>
						</g>
					</g>
					<g id="Group_7289">
						<g id="Group_7287">
							<path id="Path_6493" class="st11" d="M298.1,319.7v-0.5h13.4l-0.2,0.5H298.1z"/>
						</g>
						<g id="Group_7288">
							<path id="Path_6494" class="st12" d="M311.6,319.2h-13.4l0.8-2h13.3L311.6,319.2z"/>
						</g>
					</g>
					<g id="Group_7292">
						<g id="Group_7290">
							<path id="Path_6495" class="st11" d="M312.1,319.7l0.2-0.5h7.5l-0.1,0.5H312.1z"/>
						</g>
						<g id="Group_7291">
							<path id="Path_6496" class="st12" d="M319.7,319.2h-7.5l0.7-2h7.5L319.7,319.2z"/>
						</g>
					</g>
					<g id="Group_7295">
						<g id="Group_7293">
							<path id="Path_6497" class="st11" d="M320.2,319.7l0.1-0.5h7.5l-0.1,0.5H320.2z"/>
						</g>
						<g id="Group_7294">
							<path id="Path_6498" class="st12" d="M327.9,319.2h-7.5l0.6-2h7.5L327.9,319.2z"/>
						</g>
					</g>
					<g id="Group_7298">
						<g id="Group_7296">
							<path id="Path_6499" class="st11" d="M328.4,319.7l0.1-0.5h7.5l-0.1,0.5H328.4z"/>
						</g>
						<g id="Group_7297">
							<path id="Path_6500" class="st12" d="M336,319.2h-7.5l0.5-2h7.5L336,319.2z"/>
						</g>
					</g>
					<g id="Group_7301">
						<g id="Group_7299">
							<path id="Path_6501" class="st11" d="M336.5,319.7l0.1-0.5h7.5l-0.1,0.5H336.5z"/>
						</g>
						<g id="Group_7300">
							<path id="Path_6502" class="st12" d="M344.2,319.2h-7.5l0.5-2h7.5L344.2,319.2z"/>
						</g>
					</g>
					<g id="Group_7304">
						<g id="Group_7302">
							<path id="Path_6503" class="st11" d="M344.7,319.7l0.1-0.5h7.5l-0.1,0.5H344.7z"/>
						</g>
						<g id="Group_7303">
							<path id="Path_6504" class="st12" d="M352.3,319.2h-7.5l0.4-2h7.5L352.3,319.2z"/>
						</g>
					</g>
					<g id="Group_7307">
						<g id="Group_7305">
							<path id="Path_6505" class="st11" d="M352.9,319.7l0.1-0.5h7.5l-0.1,0.5H352.9z"/>
						</g>
						<g id="Group_7306">
							<path id="Path_6506" class="st12" d="M360.5,319.2H353l0.4-2h7.5L360.5,319.2z"/>
						</g>
					</g>
					<g id="Group_7310">
						<g id="Group_7308">
							<path id="Path_6507" class="st11" d="M361,319.7l0.1-0.5h7.5l-0.1,0.5H361z"/>
						</g>
						<g id="Group_7309">
							<path id="Path_6508" class="st12" d="M368.6,319.2h-7.5l0.3-2h7.5L368.6,319.2z"/>
						</g>
					</g>
					<g id="Group_7313">
						<g id="Group_7311">
							<path id="Path_6509" class="st11" d="M369.2,319.7l0.1-0.5h7.5l0,0.5H369.2z"/>
						</g>
						<g id="Group_7312">
							<path id="Path_6510" class="st12" d="M376.8,319.2h-7.5l0.2-2h7.5L376.8,319.2z"/>
						</g>
					</g>
					<g id="Group_7316">
						<g id="Group_7314">
							<path id="Path_6511" class="st11" d="M377.4,319.7l0-0.5h7.5l0,0.5H377.4z"/>
						</g>
						<g id="Group_7315">
							<path id="Path_6512" class="st12" d="M384.9,319.2h-7.5l0.2-2h7.5L384.9,319.2z"/>
						</g>
					</g>
					<g id="Group_7319">
						<g id="Group_7317">
							<path id="Path_6513" class="st11" d="M385.5,319.7l0-0.5h7.5l0,0.5H385.5z"/>
						</g>
						<g id="Group_7318">
							<path id="Path_6514" class="st12" d="M393.1,319.2h-7.5l0.1-2h7.5L393.1,319.2z"/>
						</g>
					</g>
					<g id="Group_7322">
						<g id="Group_7320">
							<path id="Path_6515" class="st11" d="M393.7,319.7l0-0.5h7.5v0.5H393.7z"/>
						</g>
						<g id="Group_7321">
							<path id="Path_6516" class="st12" d="M401.2,319.2h-7.5l0.1-2h7.5V319.2z"/>
						</g>
					</g>
					<g id="Group_7325">
						<g id="Group_7323">
							<path id="Path_6517" class="st11" d="M401.9,319.7v-0.5h17.9l0,0.5H401.9z"/>
						</g>
						<g id="Group_7324">
							<path id="Path_6518" class="st12" d="M419.8,319.2h-17.9l0-2h17.8L419.8,319.2z"/>
						</g>
					</g>
					<g id="Group_7328">
						<g id="Group_7326">
							<path id="Path_6519" class="st11" d="M297.3,321.9v-0.5h17.5l-0.1,0.5H297.3z"/>
						</g>
						<g id="Group_7327">
							<path id="Path_6520" class="st12" d="M314.8,321.4h-17.5l0.8-2h17.4L314.8,321.4z"/>
						</g>
					</g>
					<g id="Group_7331">
						<g id="Group_7329">
							<path id="Path_6521" class="st11" d="M315.3,321.9l0.1-0.5h7.6l-0.1,0.5H315.3z"/>
						</g>
						<g id="Group_7330">
							<path id="Path_6522" class="st12" d="M323,321.4h-7.6l0.6-2h7.5L323,321.4z"/>
						</g>
					</g>
					<g id="Group_7334">
						<g id="Group_7332">
							<path id="Path_6523" class="st11" d="M323.6,321.9l0.1-0.5h7.6l-0.1,0.5H323.6z"/>
						</g>
						<g id="Group_7333">
							<path id="Path_6524" class="st12" d="M331.3,321.4h-7.6l0.6-2h7.5L331.3,321.4z"/>
						</g>
					</g>
					<g id="Group_7337">
						<g id="Group_7335">
							<path id="Path_6525" class="st11" d="M331.8,321.9l0.1-0.5h7.6l-0.1,0.5H331.8z"/>
						</g>
						<g id="Group_7336">
							<path id="Path_6526" class="st12" d="M339.5,321.4h-7.6l0.5-2h7.5L339.5,321.4z"/>
						</g>
					</g>
					<g id="Group_7340">
						<g id="Group_7338">
							<path id="Path_6527" class="st11" d="M340,321.9l0.1-0.5h7.6l-0.1,0.5H340z"/>
						</g>
						<g id="Group_7339">
							<path id="Path_6528" class="st12" d="M347.7,321.4h-7.6l0.4-2h7.5L347.7,321.4z"/>
						</g>
					</g>
					<g id="Group_7343">
						<g id="Group_7341">
							<path id="Path_6529" class="st11" d="M348.2,321.9l0.1-0.5h7.6l-0.1,0.5H348.2z"/>
						</g>
						<g id="Group_7342">
							<path id="Path_6530" class="st12" d="M355.9,321.4h-7.6l0.4-2h7.5L355.9,321.4z"/>
						</g>
					</g>
					<g id="Group_7346">
						<g id="Group_7344">
							<path id="Path_6531" class="st11" d="M356.5,321.9l0.1-0.5h7.6l-0.1,0.5H356.5z"/>
						</g>
						<g id="Group_7345">
							<path id="Path_6532" class="st12" d="M364.1,321.4h-7.6l0.3-2h7.5L364.1,321.4z"/>
						</g>
					</g>
					<g id="Group_7349">
						<g id="Group_7347">
							<path id="Path_6533" class="st11" d="M364.7,321.9l0.1-0.5h7.6l0,0.5H364.7z"/>
						</g>
						<g id="Group_7348">
							<path id="Path_6534" class="st12" d="M372.3,321.4h-7.6l0.3-2h7.5L372.3,321.4z"/>
						</g>
					</g>
					<g id="Group_7352">
						<g id="Group_7350">
							<path id="Path_6535" class="st11" d="M372.9,321.9l0-0.5h7.6l0,0.5H372.9z"/>
						</g>
						<g id="Group_7351">
							<path id="Path_6536" class="st12" d="M380.6,321.4H373l0.2-2h7.5L380.6,321.4z"/>
						</g>
					</g>
					<g id="Group_7355">
						<g id="Group_7353">
							<path id="Path_6537" class="st11" d="M381.2,321.9l0-0.5h7.6l0,0.5H381.2z"/>
						</g>
						<g id="Group_7354">
							<path id="Path_6538" class="st12" d="M388.8,321.4h-7.6l0.1-2h7.5L388.8,321.4z"/>
						</g>
					</g>
					<g id="Group_7358">
						<g id="Group_7356">
							<path id="Path_6539" class="st11" d="M389.4,321.9l0-0.5h7.6l0,0.5H389.4z"/>
						</g>
						<g id="Group_7357">
							<path id="Path_6540" class="st12" d="M397,321.4h-7.6l0.1-2h7.5L397,321.4z"/>
						</g>
					</g>
					<g id="Group_7361">
						<g id="Group_7359">
							<path id="Path_6541" class="st11" d="M397.6,321.9l0-0.5h22.3l0,0.5H397.6z"/>
						</g>
						<g id="Group_7360">
							<path id="Path_6542" class="st12" d="M419.9,321.4h-22.3l0-2h22.1L419.9,321.4z"/>
						</g>
					</g>
					<g id="Group_7364">
						<g id="Group_7362">
							<path id="Path_6543" class="st11" d="M296.5,324v-0.5H307l-0.2,0.5H296.5z"/>
						</g>
						<g id="Group_7363">
							<path id="Path_6544" class="st12" d="M307,323.5h-10.5l0.8-2h10.4L307,323.5z"/>
						</g>
					</g>
					<g id="Group_7367">
						<g id="Group_7365">
							<path id="Path_6545" class="st11" d="M307.5,324l0.2-0.5h8.7l-0.1,0.5H307.5z"/>
						</g>
						<g id="Group_7366">
							<path id="Path_6546" class="st12" d="M316.4,323.5h-8.7l0.7-2h8.7L316.4,323.5z"/>
						</g>
					</g>
					<g id="Group_7370">
						<g id="Group_7368">
							<path id="Path_6547" class="st11" d="M411.4,324l0-0.5h8.7l0,0.5H411.4z"/>
						</g>
						<g id="Group_7369">
							<path id="Path_6548" class="st12" d="M420.1,323.5h-8.7l-0.1-2h8.7L420.1,323.5z"/>
						</g>
					</g>
					<g id="Group_7373">
						<g id="Group_7371">
							<path id="Path_6549" class="st11" d="M401.9,324v-0.5h8.7l0,0.5H401.9z"/>
						</g>
						<g id="Group_7372">
							<path id="Path_6550" class="st12" d="M410.7,323.5h-8.7l0-2h8.7L410.7,323.5z"/>
						</g>
					</g>
					<g id="Group_7376">
						<g id="Group_7374">
							<path id="Path_6551" class="st11" d="M392.5,324l0-0.5h8.7v0.5H392.5z"/>
						</g>
						<g id="Group_7375">
							<path id="Path_6552" class="st12" d="M401.3,323.5h-8.7l0.1-2h8.7V323.5z"/>
						</g>
					</g>
					<g id="Group_7379">
						<g id="Group_7377">
							<path id="Path_6553" class="st11" d="M383.1,324l0-0.5h8.7l0,0.5H383.1z"/>
						</g>
						<g id="Group_7378">
							<path id="Path_6554" class="st12" d="M391.9,323.5h-8.7l0.1-2h8.7L391.9,323.5z"/>
						</g>
					</g>
					<g id="Group_7382">
						<g id="Group_7380">
							<path id="Path_6555" class="st11" d="M316.9,324l0.1-0.5h8.7l-0.1,0.5H316.9z"/>
						</g>
						<g id="Group_7381">
							<path id="Path_6556" class="st12" d="M325.8,323.5h-8.7l0.6-2h8.7L325.8,323.5z"/>
						</g>
					</g>
					<g id="Group_7385">
						<g id="Group_7383">
							<path id="Path_6557" class="st11" d="M326.3,324l0.1-0.5h56l0,0.5H326.3z"/>
						</g>
						<g id="Group_7384">
							<path id="Path_6558" class="st12" d="M382.5,323.5h-56l0.5-2h55.6L382.5,323.5z"/>
						</g>
					</g>
					<g id="Group_7388">
						<g id="Group_7386">
							<path id="Path_6559" class="st11" d="M456.6,311.2l-0.1-0.5h24v0.5H456.6z"/>
						</g>
						<g id="Group_7387">
							<path id="Path_6560" class="st12" d="M480.5,310.7h-24l-0.1-0.5h24L480.5,310.7z"/>
						</g>
					</g>
					<g id="Group_7391">
						<g id="Group_7389">
							<path id="Path_6561" class="st11" d="M454,315.4l-0.1-0.5h7.4l0.1,0.5H454z"/>
						</g>
						<g id="Group_7390">
							<path id="Path_6562" class="st12" d="M461.3,314.9h-7.4l-0.4-2h7.3L461.3,314.9z"/>
						</g>
					</g>
					<g id="Group_7394">
						<g id="Group_7392">
							<path id="Path_6563" class="st11" d="M462,315.4l-0.1-0.5h7.4l0.1,0.5H462z"/>
						</g>
						<g id="Group_7393">
							<path id="Path_6564" class="st12" d="M469.3,314.9h-7.4l-0.5-2h7.3L469.3,314.9z"/>
						</g>
					</g>
					<g id="Group_7397">
						<g id="Group_7395">
							<path id="Path_6565" class="st11" d="M470,315.4l-0.1-0.5h7.4l0.1,0.5H470z"/>
						</g>
						<g id="Group_7396">
							<path id="Path_6566" class="st12" d="M477.3,314.9h-7.4l-0.5-2h7.3L477.3,314.9z"/>
						</g>
					</g>
					<g id="Group_7400">
						<g id="Group_7398">
							<path id="Path_6567" class="st11" d="M478.1,315.4l-0.1-0.5h7.4v0.5H478.1z"/>
						</g>
						<g id="Group_7399">
							<path id="Path_6568" class="st12" d="M485.3,314.9h-7.4l-0.6-2h7.3L485.3,314.9z"/>
						</g>
					</g>
					<g id="Group_7403">
						<g id="Group_7401">
							<path id="Path_6569" class="st11" d="M454.4,317.5l-0.1-0.5h7.5l0.1,0.5H454.4z"/>
						</g>
						<g id="Group_7402">
							<path id="Path_6570" class="st12" d="M461.7,317.1h-7.5l-0.4-2h7.4L461.7,317.1z"/>
						</g>
					</g>
					<g id="Group_7406">
						<g id="Group_7404">
							<path id="Path_6571" class="st11" d="M462.5,317.5l-0.1-0.5h7.5l0.1,0.5H462.5z"/>
						</g>
						<g id="Group_7405">
							<path id="Path_6572" class="st12" d="M469.8,317.1h-7.5l-0.5-2h7.4L469.8,317.1z"/>
						</g>
					</g>
					<g id="Group_7409">
						<g id="Group_7407">
							<path id="Path_6573" class="st11" d="M470.6,317.5l-0.1-0.5h7.5l0.1,0.5H470.6z"/>
						</g>
						<g id="Group_7408">
							<path id="Path_6574" class="st12" d="M477.9,317.1h-7.5l-0.5-2h7.4L477.9,317.1z"/>
						</g>
					</g>
					<g id="Group_7412">
						<g id="Group_7410">
							<path id="Path_6575" class="st11" d="M454.8,319.7l-0.1-0.5h7.5l0.1,0.5H454.8z"/>
						</g>
						<g id="Group_7411">
							<path id="Path_6576" class="st12" d="M462.2,319.2h-7.5l-0.4-2h7.5L462.2,319.2z"/>
						</g>
					</g>
					<g id="Group_7415">
						<g id="Group_7413">
							<path id="Path_6577" class="st11" d="M463,319.7l-0.1-0.5h7.5l0.1,0.5H463z"/>
						</g>
						<g id="Group_7414">
							<path id="Path_6578" class="st12" d="M470.4,319.2h-7.5l-0.5-2h7.5L470.4,319.2z"/>
						</g>
					</g>
					<g id="Group_7418">
						<g id="Group_7416">
							<path id="Path_6579" class="st11" d="M471.1,319.7l-0.1-0.5h7.5l0.1,0.5H471.1z"/>
						</g>
						<g id="Group_7417">
							<path id="Path_6580" class="st12" d="M478.5,319.2H471l-0.5-2h7.5L478.5,319.2z"/>
						</g>
					</g>
					<g id="Group_7421">
						<g id="Group_7419">
							<path id="Path_6581" class="st11" d="M479.3,319.7l-0.1-0.5h7.5v0.5H479.3z"/>
						</g>
						<g id="Group_7420">
							<path id="Path_6582" class="st12" d="M486.7,319.2h-7.5l-1.2-4.1h7.4L486.7,319.2z"/>
						</g>
					</g>
					<g id="Group_7424">
						<g id="Group_7422">
							<path id="Path_6583" class="st11" d="M455.2,321.9l-0.1-0.5h7.6l0.1,0.5H455.2z"/>
						</g>
						<g id="Group_7423">
							<path id="Path_6584" class="st12" d="M462.7,321.4h-7.6l-0.4-2h7.5L462.7,321.4z"/>
						</g>
					</g>
					<g id="Group_7427">
						<g id="Group_7425">
							<path id="Path_6585" class="st11" d="M463.5,321.9l-0.1-0.5h7.6l0.1,0.5H463.5z"/>
						</g>
						<g id="Group_7426">
							<path id="Path_6586" class="st12" d="M470.9,321.4h-7.6l-0.5-2h7.5L470.9,321.4z"/>
						</g>
					</g>
					<g id="Group_7430">
						<g id="Group_7428">
							<path id="Path_6587" class="st11" d="M471.7,321.9l-0.1-0.5h7.6l0.1,0.5H471.7z"/>
						</g>
						<g id="Group_7429">
							<path id="Path_6588" class="st12" d="M479.1,321.4h-7.6l-0.5-2h7.5L479.1,321.4z"/>
						</g>
					</g>
					<g id="Group_7433">
						<g id="Group_7431">
							<path id="Path_6589" class="st11" d="M455.7,324l-0.1-0.5h15.9l0.1,0.5H455.7z"/>
						</g>
						<g id="Group_7432">
							<path id="Path_6590" class="st12" d="M471.5,323.5h-15.9l-0.4-2H471L471.5,323.5z"/>
						</g>
					</g>
					<g id="Group_7436">
						<g id="Group_7434">
							<path id="Path_6591" class="st11" d="M472.2,324l-0.1-0.5h7.6l0.1,0.5H472.2z"/>
						</g>
						<g id="Group_7435">
							<path id="Path_6592" class="st12" d="M479.8,323.5h-7.6l-0.5-2h7.6L479.8,323.5z"/>
						</g>
					</g>
					<g id="Group_7439">
						<g id="Group_7437">
							<path id="Path_6593" class="st11" d="M480.5,324l-0.1-0.5h7.6v0.5H480.5z"/>
						</g>
						<g id="Group_7438">
							<path id="Path_6594" class="st12" d="M488,323.5h-7.6l-1.2-4.1h7.5L488,323.5z"/>
						</g>
					</g>
					<g id="Group_7442">
						<g id="Group_7440">
							<path id="Path_6595" class="st11" d="M306.2,311.9v-0.5h7.3l-0.2,0.5H306.2z"/>
						</g>
						<g id="Group_7441">
							<path id="Path_6596" class="st12" d="M313.5,311.4h-7.3l0.7-2h7.2L313.5,311.4z"/>
						</g>
					</g>
					<g id="Group_7445">
						<g id="Group_7443">
							<path id="Path_6597" class="st11" d="M319.3,311.9l0.1-0.5h7.3l-0.1,0.5H319.3z"/>
						</g>
						<g id="Group_7444">
							<path id="Path_6598" class="st12" d="M326.8,311.4h-7.3l0.6-2h7.2L326.8,311.4z"/>
						</g>
					</g>
					<g id="Group_7448">
						<g id="Group_7446">
							<path id="Path_6599" class="st11" d="M327.2,311.9l0.1-0.5h7.3l-0.1,0.5H327.2z"/>
						</g>
						<g id="Group_7447">
							<path id="Path_6600" class="st12" d="M334.7,311.4h-7.3l0.6-2h7.2L334.7,311.4z"/>
						</g>
					</g>
					<g id="Group_7451">
						<g id="Group_7449">
							<path id="Path_6601" class="st11" d="M335.2,311.9l0.1-0.5h7.3l-0.1,0.5H335.2z"/>
						</g>
						<g id="Group_7450">
							<path id="Path_6602" class="st12" d="M342.6,311.4h-7.3l0.5-2h7.2L342.6,311.4z"/>
						</g>
					</g>
					<g id="Group_7454">
						<g id="Group_7452">
							<path id="Path_6603" class="st11" d="M343.1,311.9l0.1-0.5h7.3l-0.1,0.5H343.1z"/>
						</g>
						<g id="Group_7453">
							<path id="Path_6604" class="st12" d="M350.5,311.4h-7.3l0.4-2h7.2L350.5,311.4z"/>
						</g>
					</g>
					<g id="Group_7457">
						<g id="Group_7455">
							<path id="Path_6605" class="st11" d="M354.1,311.9l0.1-0.5h7.3l-0.1,0.5H354.1z"/>
						</g>
						<g id="Group_7456">
							<path id="Path_6606" class="st12" d="M361.5,311.4h-7.3l0.4-2h7.2L361.5,311.4z"/>
						</g>
					</g>
					<g id="Group_7460">
						<g id="Group_7458">
							<path id="Path_6607" class="st11" d="M362,311.9l0.1-0.5h7.3l-0.1,0.5H362z"/>
						</g>
						<g id="Group_7459">
							<path id="Path_6608" class="st12" d="M369.4,311.4h-7.3l0.3-2h7.2L369.4,311.4z"/>
						</g>
					</g>
					<g id="Group_7463">
						<g id="Group_7461">
							<path id="Path_6609" class="st11" d="M370,311.9l0.1-0.5h7.3l0,0.5H370z"/>
						</g>
						<g id="Group_7462">
							<path id="Path_6610" class="st12" d="M377.3,311.4H370l0.2-2h7.2L377.3,311.4z"/>
						</g>
					</g>
					<g id="Group_7466">
						<g id="Group_7464">
							<path id="Path_6611" class="st11" d="M377.9,311.9l0-0.5h7.3l0,0.5H377.9z"/>
						</g>
						<g id="Group_7465">
							<path id="Path_6612" class="st12" d="M385.2,311.4h-7.3l0.2-2h7.2L385.2,311.4z"/>
						</g>
					</g>
					<g id="Group_7469">
						<g id="Group_7467">
							<path id="Path_6613" class="st11" d="M388.9,311.9l0-0.5h7.3l0,0.5H388.9z"/>
						</g>
						<g id="Group_7468">
							<path id="Path_6614" class="st12" d="M396.2,311.4h-7.3l0.1-2h7.2L396.2,311.4z"/>
						</g>
					</g>
					<g id="Group_7472">
						<g id="Group_7470">
							<path id="Path_6615" class="st11" d="M396.8,311.9l0-0.5h7.3l0,0.5H396.8z"/>
						</g>
						<g id="Group_7471">
							<path id="Path_6616" class="st12" d="M404.1,311.4h-7.3l0-2h7.2L404.1,311.4z"/>
						</g>
					</g>
					<g id="Group_7475">
						<g id="Group_7473">
							<path id="Path_6617" class="st11" d="M404.8,311.9l0-0.5h7.3l0,0.5H404.8z"/>
						</g>
						<g id="Group_7474">
							<path id="Path_6618" class="st12" d="M412.1,311.4h-7.3l0-2h7.2L412.1,311.4z"/>
						</g>
					</g>
					<g id="Group_7478">
						<g id="Group_7476">
							<path id="Path_6619" class="st11" d="M412.7,311.9l0-0.5h7.3l0,0.5H412.7z"/>
						</g>
						<g id="Group_7477">
							<path id="Path_6620" class="st12" d="M420,311.4h-7.3l-0.1-2h7.2L420,311.4z"/>
						</g>
					</g>
					<g id="Group_7481">
						<g id="Group_7479">
							<path id="Path_6621" class="st11" d="M425.1,311.9l0-0.5h7.3l0.1,0.5H425.1z"/>
						</g>
						<g id="Group_7480">
							<path id="Path_6622" class="st12" d="M432.3,311.4H425l-0.2-2h7.2L432.3,311.4z"/>
						</g>
					</g>
					<g id="Group_7484">
						<g id="Group_7482">
							<path id="Path_6623" class="st11" d="M433,311.9l-0.1-0.5h7.3l0.1,0.5H433z"/>
						</g>
						<g id="Group_7483">
							<path id="Path_6624" class="st12" d="M440.2,311.4h-7.3l-0.2-2h7.2L440.2,311.4z"/>
						</g>
					</g>
					<g id="Group_7487">
						<g id="Group_7485">
							<path id="Path_6625" class="st11" d="M440.9,311.9l-0.1-0.5h7.3l0.1,0.5H440.9z"/>
						</g>
						<g id="Group_7486">
							<path id="Path_6626" class="st12" d="M448.1,311.4h-7.3l-0.3-2h7.2L448.1,311.4z"/>
						</g>
					</g>
					<g id="Group_7490">
						<g id="Group_7488">
							<path id="Path_6627" class="st11" d="M425.4,315.4l0-0.5h7.4l0.1,0.5H425.4z"/>
						</g>
						<g id="Group_7489">
							<path id="Path_6628" class="st12" d="M432.7,314.9h-7.4l-0.2-2h7.3L432.7,314.9z"/>
						</g>
					</g>
					<g id="Group_7493">
						<g id="Group_7491">
							<path id="Path_6629" class="st11" d="M433.4,315.4l-0.1-0.5h7.4l0.1,0.5H433.4z"/>
						</g>
						<g id="Group_7492">
							<path id="Path_6630" class="st12" d="M440.7,314.9h-7.4l-0.2-2h7.3L440.7,314.9z"/>
						</g>
					</g>
					<g id="Group_7496">
						<g id="Group_7494">
							<path id="Path_6631" class="st11" d="M441.4,315.4l-0.1-0.5h7.4l0.1,0.5H441.4z"/>
						</g>
						<g id="Group_7495">
							<path id="Path_6632" class="st12" d="M448.8,314.9h-7.4l-0.3-2h7.3L448.8,314.9z"/>
						</g>
					</g>
					<g id="Group_7499">
						<g id="Group_7497">
							<path id="Path_6633" class="st11" d="M425.6,317.5l0-0.5h7.5l0.1,0.5H425.6z"/>
						</g>
						<g id="Group_7498">
							<path id="Path_6634" class="st12" d="M433,317.1h-7.5l-0.2-2h7.4L433,317.1z"/>
						</g>
					</g>
					<g id="Group_7502">
						<g id="Group_7500">
							<path id="Path_6635" class="st11" d="M433.7,317.5l-0.1-0.5h7.5l0.1,0.5H433.7z"/>
						</g>
						<g id="Group_7501">
							<path id="Path_6636" class="st12" d="M441.1,317.1h-7.5l-0.2-2h7.4L441.1,317.1z"/>
						</g>
					</g>
					<g id="Group_7505">
						<g id="Group_7503">
							<path id="Path_6637" class="st11" d="M441.8,317.5l-0.1-0.5h7.5l0.1,0.5H441.8z"/>
						</g>
						<g id="Group_7504">
							<path id="Path_6638" class="st12" d="M449.1,317.1h-7.5l-0.3-2h7.4L449.1,317.1z"/>
						</g>
					</g>
					<g id="Group_7508">
						<g id="Group_7506">
							<path id="Path_6639" class="st11" d="M434.2,321.9l-0.1-0.5h7.6l0.1,0.5H434.2z"/>
						</g>
						<g id="Group_7507">
							<path id="Path_6640" class="st12" d="M441.7,321.4h-7.6l-0.2-2h7.5L441.7,321.4z"/>
						</g>
					</g>
					<g id="Group_7511">
						<g id="Group_7509">
							<path id="Path_6641" class="st11" d="M426.1,324l0-0.5h7.6l0.1,0.5H426.1z"/>
						</g>
						<g id="Group_7510">
							<path id="Path_6642" class="st12" d="M433.7,323.5h-7.6l-0.2-2h7.6L433.7,323.5z"/>
						</g>
					</g>
					<g id="Group_7514">
						<g id="Group_7512">
							<path id="Path_6643" class="st11" d="M434.4,324l-0.1-0.5h7.6l0.1,0.5H434.4z"/>
						</g>
						<g id="Group_7513">
							<path id="Path_6644" class="st12" d="M442,323.5h-7.6l-0.2-2h7.6L442,323.5z"/>
						</g>
					</g>
					<g id="Group_7517">
						<g id="Group_7515">
							<path id="Path_6645" class="st11" d="M442.7,324l-0.1-0.5h7.6l0.1,0.5H442.7z"/>
						</g>
						<g id="Group_7516">
							<path id="Path_6646" class="st12" d="M450.3,323.5h-7.6l-0.3-2h7.6L450.3,323.5z"/>
						</g>
					</g>
				</g>
			</g>
			<g id="Group_7520">
				<path id="Path_6647" class="st2" d="M507.4,323c-11.1,0-20.9-5.9-20.9-13.2c0-3.9,4.3-7.8,12.3-7.8c8.1,0,12.2,2,15.4,8.4      c2,4,2.9,6.5,1.3,9C514.6,321.1,512.3,323,507.4,323z"/>
				<path id="Path_6648" class="st3" d="M513.9,309.8c3.5,6.9,1.2,12.1-6.5,12.1c-9,0-20.3-5.4-20.3-12.1c0-3.1,4.1-8.3,11.8-8.3      S510.8,303.8,513.9,309.8z"/>
				<path id="Path_6649" class="st13" d="M509.5,304.3c-2.6-0.8-5.4-1.2-8.2-1.2c-8.8,0-13.5,6-13.5,9.6v0.1c-0.2-0.3-0.3-0.6-0.4-1      c0.4-3.6,5.1-9,13.5-9c2.7-0.1,5.5,0.3,8.1,1.1c0,0,0,0,0,0C509.2,304,509.4,304.2,509.5,304.3z"/>
			</g>
		</g>
		<g id="Group_7628">
			<rect id="Rectangle_1256" x="410.5" y="117.4" class="st4" width="18.8" height="185.4"/>
			<rect id="Rectangle_1257" x="220.4" y="117.4" class="st4" width="18.8" height="185.4"/>
			<rect id="Rectangle_1258" x="600.6" y="117.4" class="st4" width="18.8" height="185.4"/>
			<g id="Group_7536">
				<path id="Path_6650" class="st14" d="M506.8,296.5H333c-2.1,0-3.8-1.7-3.8-3.8v0V185.1c0-2.1,1.7-3.8,3.8-3.8l0,0h173.8      c2.1,0,3.8,1.7,3.8,3.8v107.6C510.6,294.8,508.9,296.5,506.8,296.5C506.8,296.5,506.8,296.5,506.8,296.5z"/>
				<rect id="Rectangle_1259" x="336.1" y="188.2" class="st15" width="167.6" height="101.4"/>
				<rect id="Rectangle_1260" x="336.1" y="188.2" class="st16" width="167.6" height="101.4"/>
				<g id="Group_7534">
					<g id="Group_7533">
						<g id="Group_7522">
							<rect id="Rectangle_1261" x="379.9" y="195.3" class="st15" width="116.8" height="19.6"/>
							<rect id="Rectangle_1262" x="379.9" y="217.8" class="st15" width="116.8" height="19.6"/>
							<rect id="Rectangle_1263" x="379.9" y="240.3" class="st15" width="116.8" height="19.6"/>
							<rect id="Rectangle_1264" x="379.9" y="262.9" class="st15" width="116.8" height="19.6"/>
						</g>
						<g id="Group_7532">
							<g id="Group_7523">
								<rect id="Rectangle_1265" x="343.1" y="195.3" class="st15" width="33.9" height="19.6"/>
								<rect id="Rectangle_1266" x="343.1" y="217.8" class="st15" width="33.9" height="19.6"/>
								<rect id="Rectangle_1267" x="343.1" y="240.3" class="st15" width="33.9" height="19.6"/>
								<rect id="Rectangle_1268" x="343.1" y="262.9" class="st15" width="33.9" height="19.6"/>
							</g>
							<g id="Group_7525">
								<path id="Path_6651" class="st17" d="M369,210h-18.2c-1.2,0-2.2-1-2.2-2.2c0,0,0,0,0,0v-5.5c0-1.2,1-2.2,2.2-2.2l0,0H369          c1.2,0,2.2,1,2.2,2.2c0,0,0,0,0,0v5.5C371.2,209,370.2,210,369,210L369,210z"/>
								<g id="Group_7524">
									<path id="Path_6652" class="st4" d="M352.7,203.5v1.8h1.7v0.6h-1.7v1.8H352v-1.8h-1.7v-0.6h1.7v-1.8H352.7z"/>
									<path id="Path_6653" class="st4" d="M355.2,206.7c0.4,0.2,0.8,0.3,1.2,0.3c0.7,0,1-0.4,1-0.8c0-0.6-0.6-0.9-1.2-0.9h-0.4           v-0.7h0.4c0.5,0,1-0.2,1-0.7c0-0.3-0.3-0.6-0.8-0.6c-0.4,0-0.7,0.1-1,0.3l-0.2-0.7c0.4-0.3,1-0.4,1.5-0.4           c1.1,0,1.6,0.6,1.6,1.3c0,0.6-0.4,1.1-0.9,1.2v0c0.6,0.1,1.1,0.6,1.1,1.3c0,0.9-0.7,1.6-2,1.6c-0.5,0-1-0.1-1.4-0.4           L355.2,206.7z"/>
									<path id="Path_6654" class="st4" d="M362.9,205.1c0,1.6-0.6,2.7-1.9,2.7c-1.2,0-1.8-1.1-1.8-2.6c0-1.6,0.7-2.7,1.9-2.7           C362.3,202.4,362.9,203.5,362.9,205.1z M360.2,205.1c0,1.2,0.3,1.9,0.9,1.9c0.6,0,0.9-0.7,0.9-1.9c0-1.2-0.3-1.9-0.9-1.9           C360.5,203.2,360.1,203.8,360.2,205.1z"/>
									<path id="Path_6655" class="st4" d="M366,204c0,1.1-0.6,1.6-1.3,1.6c-0.8,0-1.3-0.7-1.3-1.4c0,0,0-0.1,0-0.1           c-0.1-0.8,0.4-1.5,1.2-1.6c0,0,0.1,0,0.1,0C365.5,202.4,366,203,366,204z M364.1,204c0,0.6,0.2,1,0.6,1s0.6-0.4,0.6-1           c0-0.6-0.2-1-0.6-1C364.3,203,364.1,203.4,364.1,204z M364.7,207.7l3-5.3h0.6l-3,5.3H364.7z M369.5,206.1           c0,1.1-0.6,1.6-1.3,1.6c-0.8,0-1.3-0.7-1.3-1.4c0,0,0-0.1,0-0.1c-0.1-0.8,0.4-1.5,1.2-1.6c0,0,0.1,0,0.1,0           C369,204.6,369.5,205.2,369.5,206.1L369.5,206.1z M367.6,206.1c0,0.6,0.2,1,0.6,1s0.6-0.4,0.6-1c0-0.6-0.2-1-0.6-1           C367.8,205.1,367.6,205.6,367.6,206.1L367.6,206.1z"/>
								</g>
							</g>
							<g id="Group_7527">
								<path id="Path_6656" class="st17" d="M369,232.6h-18.2c-1.2,0-2.2-1-2.2-2.2c0,0,0,0,0,0v-5.5c0-1.2,1-2.2,2.2-2.2l0,0H369          c1.2,0,2.2,1,2.2,2.2c0,0,0,0,0,0v5.5C371.2,231.6,370.2,232.6,369,232.6z"/>
								<g id="Group_7526">
									<path id="Path_6657" class="st4" d="M352.7,226v1.8h1.7v0.6h-1.7v1.8H352v-1.8h-1.7v-0.6h1.7V226H352.7z"/>
									<path id="Path_6658" class="st4" d="M355,230.2v-0.6l0.6-0.6c1.2-1.1,1.8-1.7,1.8-2.4c0-0.4-0.3-0.8-0.7-0.9           c-0.1,0-0.1,0-0.2,0c-0.4,0-0.8,0.2-1.1,0.4l-0.3-0.7c0.5-0.3,1-0.5,1.6-0.5c0.8-0.1,1.6,0.5,1.7,1.3c0,0.1,0,0.1,0,0.2           c0,0.9-0.6,1.6-1.5,2.5l-0.4,0.4v0h2.1v0.8L355,230.2z"/>
									<path id="Path_6659" class="st4" d="M362.9,227.6c0,1.6-0.6,2.7-1.9,2.7c-1.2,0-1.8-1.1-1.8-2.6c0-1.6,0.7-2.7,1.9-2.7           C362.3,225,362.9,226.1,362.9,227.6z M360.2,227.6c0,1.2,0.3,1.9,0.9,1.9c0.6,0,0.9-0.7,0.9-1.9c0-1.2-0.3-1.9-0.9-1.9           C360.5,225.7,360.1,226.4,360.2,227.6L360.2,227.6z"/>
									<path id="Path_6660" class="st4" d="M366,226.5c0,1.1-0.6,1.6-1.3,1.6c-0.8,0-1.3-0.7-1.3-1.4c0,0,0-0.1,0-0.1           c-0.1-0.8,0.4-1.5,1.2-1.6c0,0,0.1,0,0.1,0C365.5,225,366,225.6,366,226.5z M364.1,226.6c0,0.6,0.2,1,0.6,1s0.6-0.4,0.6-1           c0-0.6-0.2-1-0.6-1C364.3,225.5,364.1,226,364.1,226.6z M364.7,230.3l3-5.3h0.6l-3,5.3H364.7z M369.5,228.6           c0,1.1-0.6,1.6-1.3,1.6c-0.8,0-1.3-0.7-1.3-1.4c0,0,0-0.1,0-0.1c-0.1-0.8,0.4-1.5,1.2-1.6c0,0,0.1,0,0.1,0           C369,227.1,369.5,227.7,369.5,228.6L369.5,228.6z M367.6,228.7c0,0.6,0.2,1,0.6,1s0.6-0.4,0.6-1c0-0.6-0.2-1-0.6-1           C367.8,227.7,367.6,228.1,367.6,228.7L367.6,228.7z"/>
								</g>
							</g>
							<g id="Group_7529">
								<path id="Path_6661" class="st18" d="M369,255.1h-18.2c-1.2,0-2.2-1-2.2-2.2c0,0,0,0,0,0v-5.5c0-1.2,1-2.2,2.2-2.2l0,0H369          c1.2,0,2.2,1,2.2,2.2c0,0,0,0,0,0v5.5C371.2,254.1,370.2,255.1,369,255.1L369,255.1z"/>
								<g id="Group_7528">
									<path id="Path_6662" class="st4" d="M354.4,250.3v0.7h-2v-0.7H354.4z"/>
									<path id="Path_6663" class="st4" d="M356.5,248.5L356.5,248.5l-1,0.5l-0.2-0.7l1.2-0.6h0.8v5.1h-0.9L356.5,248.5           L356.5,248.5z"/>
									<path id="Path_6664" class="st4" d="M362.9,250.1c0,1.6-0.6,2.7-1.9,2.7c-1.2,0-1.8-1.1-1.8-2.6c0-1.6,0.7-2.7,1.9-2.7           C362.3,247.5,362.9,248.6,362.9,250.1z M360.2,250.2c0,1.2,0.3,1.9,0.9,1.9c0.6,0,0.9-0.7,0.9-1.9c0-1.2-0.3-1.9-0.9-1.9           C360.5,248.3,360.1,248.9,360.2,250.2L360.2,250.2z"/>
									<path id="Path_6665" class="st4" d="M366,249c0,1.1-0.6,1.6-1.3,1.6c-0.8,0-1.3-0.7-1.3-1.4c0,0,0-0.1,0-0.1           c-0.1-0.8,0.4-1.5,1.2-1.6c0,0,0.1,0,0.1,0C365.5,247.5,366,248.1,366,249z M364.1,249.1c0,0.6,0.2,1,0.6,1s0.6-0.4,0.6-1           c0-0.6-0.2-1-0.6-1C364.3,248.1,364.1,248.5,364.1,249.1z M364.7,252.8l3-5.3h0.6l-3,5.3H364.7z M369.5,251.2           c0,1.1-0.6,1.6-1.3,1.6c-0.8,0-1.3-0.7-1.3-1.4c0,0,0-0.1,0-0.1c-0.1-0.8,0.4-1.5,1.2-1.6c0,0,0.1,0,0.1,0           C369,249.6,369.5,250.2,369.5,251.2L369.5,251.2z M367.6,251.2c0,0.6,0.2,1,0.6,1s0.6-0.4,0.6-1c0-0.6-0.2-1-0.6-1           C367.8,250.2,367.6,250.6,367.6,251.2L367.6,251.2z"/>
								</g>
							</g>
							<g id="Group_7531">
								<path id="Path_6666" class="st17" d="M369,277.6h-18.2c-1.2,0-2.2-1-2.2-2.2v0V270c0-1.2,1-2.2,2.2-2.2h0H369          c1.2,0,2.2,1,2.2,2.2v0v5.5C371.2,276.6,370.2,277.6,369,277.6L369,277.6z"/>
								<g id="Group_7530">
									<path id="Path_6667" class="st4" d="M352.7,271.1v1.8h1.7v0.6h-1.7v1.8H352v-1.8h-1.7v-0.6h1.7v-1.8H352.7z"/>
									<path id="Path_6668" class="st4" d="M356.5,271L356.5,271l-1,0.5l-0.2-0.7l1.2-0.6h0.8v5.1h-0.9L356.5,271L356.5,271z"/>
									<path id="Path_6669" class="st4" d="M362.5,270.9h-2l-0.1,1c0.1,0,0.2,0,0.4,0c0.4,0,0.9,0.1,1.2,0.3           c0.4,0.3,0.7,0.8,0.7,1.3c0,1-0.9,1.8-2,1.8c0,0-0.1,0-0.1,0c-0.5,0-0.9-0.1-1.4-0.3l0.2-0.7c0.4,0.2,0.7,0.3,1.1,0.3           c0.5,0.1,1-0.3,1.1-0.9c0,0,0,0,0-0.1c0-0.6-0.4-1-1.5-1c-0.2,0-0.5,0-0.7,0l0.3-2.6h2.6V270.9z"/>
									<path id="Path_6670" class="st4" d="M366,271.6c0,1.1-0.6,1.6-1.3,1.6c-0.8,0-1.3-0.7-1.3-1.4c0,0,0-0.1,0-0.1           c-0.1-0.8,0.4-1.5,1.2-1.6c0,0,0.1,0,0.1,0C365.5,270.1,366,270.7,366,271.6z M364.1,271.6c0,0.6,0.2,1,0.6,1           s0.6-0.4,0.6-1c0-0.6-0.2-1-0.6-1C364.3,270.6,364.1,271.1,364.1,271.6z M364.7,275.3l3-5.3h0.6l-3,5.3H364.7z            M369.5,273.7c0,1.1-0.6,1.6-1.3,1.6c-0.8,0-1.3-0.7-1.3-1.4c0,0,0-0.1,0-0.1c-0.1-0.8,0.4-1.5,1.2-1.6c0,0,0.1,0,0.1,0           C369,272.2,369.5,272.8,369.5,273.7L369.5,273.7z M367.6,273.8c0,0.6,0.2,1,0.6,1s0.6-0.4,0.6-1c0-0.6-0.2-1-0.6-1           C367.8,272.7,367.6,273.2,367.6,273.8L367.6,273.8z"/>
								</g>
							</g>
						</g>
					</g>
					<path id="Path_6671" class="st19" d="M384,212.9l-0.7-0.8l5.5-5l6.8,3l2.9-2.9l8.8-1.1l4.4,2.3l4.9-3.3l6.6-2.2l8.8,4.2       l5.2-2.1l2.5,2.1l4.4-4.5l3.2,6.4l2.3-3.8l4.2-3.3l6.3,2.8l4.2,1.5l2.6-3.2l7.6,2.1l5.4-3.1l6.5,1l6.3-5.7l0.7,0.8l-6.7,6       l-6.7-1l-5.4,3.1l-7.3-2.1l-2.6,3.3l-5-1.8l-5.7-2.5l-3.6,2.8l-3.1,5.2l-3.5-6.8l-4,4.1l-2.8-2.3l-5.1,2.1l-8.8-4.2l-6.1,2       l-5.2,3.5l-4.6-2.4l-8.1,1l-3.2,3.2l-6.8-3L384,212.9z"/>
					<path id="Path_6672" class="st19" d="M413,234.7l-6.1-1l-8.1-1.8l-4.2-1.1l-5.9,2.4l-5.5-2.9l0.5-1l5,2.7l5.7-2.3l4.5,1.2       l8,1.7l5.8,1l5.9-2l5.7-2.9l6-4.7l7.4-1.9l2.6,3.3l5.4-2.4l2.4,5.8l2.7-0.8l4.6-3.7l4.4,4.3l3.2-2.5l6.5,2.3l6.4-0.4l5.5,0.6       l5-1l6.1-2.5l0.4,1l-6.1,2.5l-5.2,1.1l-5.6-0.7l-6.5,0.4l-6.2-2.1l-3.5,2.7l-4.4-4.3l-4.1,3.3l-3.8,1l-2.4-5.6l-5.1,2.2       l-2.7-3.4l-6.6,1.7l-5.8,4.6l-5.8,2.9L413,234.7z"/>
					<path id="Path_6673" class="st19" d="M447.7,277.3l-2.5-4.6l-4.8-1.8l-4.6,1.9l-5.1,1.9l-5.8-0.7l-5.9,3l-6.2-3.3l-5.7-1       l-8.1,3.5l-4.5-1.2l-5.8-2.9l-5.2-0.8l0.2-1.1l5.4,0.8l5.8,2.9l4,1.1l8-3.4l6.3,1.1l5.7,3l5.7-2.9l5.8,0.7l4.8-1.8l5-2.1       l5.6,2.1l2.3,4.1l2.9-1.2l4.4-2.3l4.6,0.6l3.1,0.5l6.3-3.7l6.9-0.4l5.5,6.5l4.7-0.9l6.1-3.3l0.5,1l-6.3,3.4l-5.4,1.1l-5.6-6.6       l-6.1,0.3l-6.4,3.8l-3.5-0.5l-4.2-0.5l-4.2,2.1L447.7,277.3z"/>
					<path id="Path_6674" class="st18" d="M492.8,257.4l-6.3-1.5l-4.8-3l-5.6,1.9l-6.5-5.3l-4.6,3l-5,2.9l-5.7-3.5l-4.4,3.4       l-4.8-1.1l-2.3-2.4l-5.2,2.3l-4.3-4.5l-2.6-1l-5.7,4.6l-6-0.3l-6.2-0.6l-5.7-2.2l-8,5.5l-4.4-0.6l-5.7,1.2l-5.4,0.1l0-1.1       l5.3-0.1l5.8-1.2l4.2,0.5l8.1-5.6l6.2,2.4l5.9,0.5l5.6,0.3l5.9-4.7l3.4,1.3l4,4.1l5.2-2.3l2.6,2.7l3.9,0.9l4.6-3.6l5.8,3.6       l4.4-2.5l5.3-3.4l6.6,5.4l5.5-1.9l5.2,3.3l6.1,1.4L492.8,257.4z"/>
				</g>
				<g id="Group_7535">
					<path id="Path_6675" class="st20" d="M469.2,188.2L367.7,289.6h-22.9l101.4-101.4H469.2z"/>
					<path id="Path_6676" class="st20" d="M503.7,188.2v18.7L421,289.6h-47.7l101.4-101.4H503.7z"/>
				</g>
			</g>
			<g id="Group_7542">
				<path id="Path_6677" class="st14" d="M506.8,175H333c-2.1,0-3.8-1.7-3.8-3.8V63.6c0-2.1,1.7-3.8,3.8-3.8h173.8      c2.1,0,3.8,1.7,3.8,3.8v107.6C510.6,173.3,508.9,175,506.8,175C506.8,175,506.8,175,506.8,175z"/>
				<rect id="Rectangle_1269" x="336.1" y="66.7" class="st15" width="167.6" height="101.4"/>
				<rect id="Rectangle_1270" x="336.1" y="66.7" class="st16" width="167.6" height="101.4"/>
				<g id="Group_7540">
					<g id="Group_7537">
						<rect id="Rectangle_1271" x="342.6" y="81.5" class="st15" width="154.6" height="77.2"/>
						<rect id="Rectangle_1272" x="348.6" y="136.5" class="st21" width="4.2" height="22.3"/>
						<rect id="Rectangle_1273" x="354.6" y="129.3" class="st21" width="4.2" height="29.4"/>
						<rect id="Rectangle_1274" x="360.7" y="117.4" class="st21" width="4.2" height="41.4"/>
						<rect id="Rectangle_1275" x="366.7" y="123.2" class="st21" width="4.2" height="35.5"/>
						<rect id="Rectangle_1276" x="372.7" y="128.6" class="st21" width="4.2" height="30.2"/>
						<rect id="Rectangle_1277" x="378.7" y="125.5" class="st21" width="4.2" height="33.2"/>
						<rect id="Rectangle_1278" x="384.7" y="120.1" class="st21" width="4.2" height="38.6"/>
						<rect id="Rectangle_1279" x="390.7" y="123.7" class="st21" width="4.2" height="35.1"/>
						<rect id="Rectangle_1280" x="396.7" y="130.4" class="st21" width="4.2" height="28.3"/>
						<rect id="Rectangle_1281" x="402.8" y="132.8" class="st21" width="4.2" height="25.9"/>
						<rect id="Rectangle_1282" x="408.8" y="141" class="st21" width="4.2" height="17.8"/>
						<rect id="Rectangle_1283" x="414.8" y="130.4" class="st21" width="4.2" height="28.3"/>
						<rect id="Rectangle_1284" x="420.8" y="127.4" class="st21" width="4.2" height="31.4"/>
						<rect id="Rectangle_1285" x="426.8" y="124.4" class="st21" width="4.2" height="34.3"/>
						<rect id="Rectangle_1286" x="432.8" y="108.3" class="st21" width="4.2" height="50.4"/>
						<rect id="Rectangle_1287" x="438.9" y="120.8" class="st21" width="4.2" height="37.9"/>
						<rect id="Rectangle_1288" x="444.9" y="102.2" class="st21" width="4.2" height="56.5"/>
						<rect id="Rectangle_1289" x="450.9" y="116" class="st21" width="4.2" height="42.7"/>
						<rect id="Rectangle_1290" x="456.9" y="122.6" class="st21" width="4.2" height="36.2"/>
						<rect id="Rectangle_1291" x="462.9" y="119.5" class="st21" width="4.2" height="39.3"/>
						<rect id="Rectangle_1292" x="468.9" y="116" class="st21" width="4.2" height="42.7"/>
						<rect id="Rectangle_1293" x="474.9" y="127.4" class="st21" width="4.2" height="31.4"/>
						<rect id="Rectangle_1294" x="481" y="130.4" class="st21" width="4.2" height="28.3"/>
						<rect id="Rectangle_1295" x="487" y="117.4" class="st21" width="4.2" height="41.4"/>
					</g>
					<rect id="Rectangle_1296" x="342.6" y="158.7" class="st4" width="154.6" height="2"/>
					<rect id="Rectangle_1297" x="342.6" y="80.5" class="st20" width="154.6" height="1"/>
					<g id="Group_7538">
						<path id="Path_6678" class="st9" d="M342.6,72.1h1.1v5.1h2.5v0.9h-3.6L342.6,72.1z"/>
						<path id="Path_6679" class="st9" d="M352,75.1c0.2,1.6-0.9,3-2.5,3.2c-0.1,0-0.3,0-0.4,0c-1.5,0-2.8-1.2-2.8-2.8        c0-0.1,0-0.2,0-0.3c-0.2-1.6,1-3,2.6-3.2c0.1,0,0.2,0,0.3,0c1.5,0,2.8,1.2,2.8,2.8C352.1,74.9,352.1,75,352,75.1z M347.5,75.2        c0,1.2,0.6,2.2,1.7,2.2s1.7-1,1.7-2.3c0-1.1-0.6-2.2-1.7-2.2S347.5,73.9,347.5,75.2L347.5,75.2z"/>
						<path id="Path_6680" class="st9" d="M353,72.2c0.6-0.1,1.1-0.1,1.7-0.1c0.7-0.1,1.3,0.1,1.9,0.5c0.3,0.3,0.5,0.7,0.5,1.2        c0,0.7-0.4,1.3-1.1,1.5v0c0.5,0.2,0.8,0.7,0.8,1.2c0.1,0.6,0.3,1.1,0.5,1.7h-1.1c-0.2-0.5-0.3-0.9-0.4-1.4        c-0.2-0.8-0.5-1-1.1-1.1h-0.6v2.5H353V72.2z M354.1,74.9h0.7c0.7,0,1.2-0.4,1.2-1c0-0.7-0.5-1-1.2-1c-0.2,0-0.5,0-0.7,0.1        V74.9z"/>
						<path id="Path_6681" class="st9" d="M361.5,75.5h-2.3v1.8h2.5v0.9h-3.7v-6h3.5V73h-2.4v1.6h2.3L361.5,75.5z"/>
						<path id="Path_6682" class="st9" d="M367.8,75.7c0-0.8-0.1-1.7-0.1-2.5h0c-0.2,0.7-0.4,1.6-0.7,2.3l-0.9,2.6h-0.9l-0.8-2.6        c-0.2-0.8-0.4-1.6-0.6-2.3h0c0,0.8-0.1,1.7-0.1,2.6l-0.1,2.4h-1l0.4-6h1.5l0.8,2.4c0.2,0.7,0.4,1.4,0.6,2.1h0        c0.2-0.7,0.4-1.4,0.6-2.1l0.8-2.4h1.4l0.4,6h-1.1L367.8,75.7z"/>
					</g>
					<g id="Group_7539">
						<path id="Path_6683" class="st19" d="M472.8,74.4V76h1.5v0.6h-1.5v1.6h-0.6v-1.6h-1.5V76h1.5v-1.6L472.8,74.4z"/>
						<path id="Path_6684" class="st19" d="M478.1,73.6v0.6l-1.9,4h-0.9l1.9-3.9v0H475v-0.7L478.1,73.6L478.1,73.6z"/>
						<path id="Path_6685" class="st19" d="M478.7,77.7c0-0.3,0.2-0.5,0.5-0.6c0,0,0,0,0,0c0.3,0,0.5,0.3,0.5,0.6        c0,0.3-0.2,0.5-0.5,0.5C479,78.3,478.7,78,478.7,77.7C478.7,77.7,478.7,77.7,478.7,77.7z"/>
						<path id="Path_6686" class="st19" d="M480.4,78.2v-0.5l0.5-0.5c1.1-1,1.6-1.6,1.6-2.2c0-0.4-0.3-0.7-0.7-0.8        c-0.1,0-0.1,0-0.2,0c-0.4,0-0.7,0.2-1,0.4l-0.3-0.6c0.4-0.3,0.9-0.5,1.4-0.5c0.7-0.1,1.4,0.5,1.5,1.2c0,0.1,0,0.1,0,0.2        c0,0.8-0.6,1.5-1.4,2.2l-0.4,0.3v0h1.9v0.7L480.4,78.2L480.4,78.2z"/>
						<path id="Path_6687" class="st19" d="M486.1,78.2V77H484v-0.6l1.9-2.9h1v2.8h0.6V77h-0.6v1.2H486.1z M486.1,76.4v-1.3        c0-0.3,0-0.5,0-0.8h0c-0.1,0.3-0.3,0.5-0.4,0.8l-0.8,1.3l0,0L486.1,76.4L486.1,76.4z"/>
						<path id="Path_6688" class="st19" d="M490.9,74.3h-1.8l-0.1,0.9c0.1,0,0.2,0,0.3,0c0.4,0,0.8,0.1,1.1,0.3        c0.4,0.3,0.6,0.7,0.6,1.2c0,0.9-0.8,1.6-1.8,1.6c0,0-0.1,0-0.1,0c-0.4,0-0.8-0.1-1.2-0.3l0.2-0.7c0.3,0.2,0.7,0.2,1,0.2        c0.5,0.1,0.9-0.3,1-0.8c0,0,0,0,0-0.1c0-0.5-0.4-0.9-1.3-0.9c-0.2,0-0.4,0-0.6,0l0.3-2.3h2.4L490.9,74.3z"/>
						<path id="Path_6689" class="st19" d="M494,74.9c0,1-0.6,1.5-1.2,1.5c-0.7,0-1.2-0.6-1.2-1.3c0,0,0-0.1,0-0.1        c0-0.9,0.5-1.4,1.2-1.4C493.6,73.5,494,74,494,74.9z M492.3,74.9c0,0.5,0.2,0.9,0.5,0.9s0.5-0.4,0.5-0.9        c0-0.5-0.1-0.9-0.5-0.9C492.5,74,492.3,74.4,492.3,74.9z M492.8,78.3l2.7-4.8h0.5l-2.7,4.8L492.8,78.3z M497.2,76.8        c0,1-0.6,1.5-1.2,1.5c-0.7,0-1.2-0.6-1.2-1.3c0,0,0-0.1,0-0.1c-0.1-0.7,0.4-1.3,1.1-1.4c0,0,0.1,0,0.1,0        C496.8,75.4,497.2,76,497.2,76.8L497.2,76.8z M495.5,76.8c0,0.5,0.2,0.9,0.5,0.9s0.5-0.4,0.5-0.9c0-0.5-0.1-0.9-0.5-0.9        C495.7,75.9,495.5,76.3,495.5,76.8L495.5,76.8z"/>
					</g>
				</g>
				<g id="Group_7541">
					<path id="Path_6690" class="st20" d="M469.2,66.7L367.7,168.1h-22.9L446.3,66.7H469.2z"/>
					<path id="Path_6691" class="st20" d="M503.7,66.7v18.7L421,168.1h-47.7L474.7,66.7H503.7z"/>
				</g>
			</g>
			<g id="Group_7561">
				<path id="Path_6692" class="st14" d="M316.7,296.5H142.9c-2.1,0-3.8-1.7-3.8-3.8V185.1c0-2.1,1.7-3.8,3.8-3.8h173.8      c2.1,0,3.8,1.7,3.8,3.8v0v107.6C320.5,294.8,318.8,296.5,316.7,296.5C316.7,296.5,316.7,296.5,316.7,296.5z"/>
				<rect id="Rectangle_1298" x="146" y="188.2" class="st15" width="167.6" height="101.4"/>
				<rect id="Rectangle_1299" x="146" y="188.2" class="st16" width="167.6" height="101.4"/>
				<g id="Group_7559">
					<g id="Group_7548">
						<g id="Group_7547">
							<rect id="Rectangle_1300" x="153.6" y="198.1" class="st15" width="44.3" height="81.5"/>
							<rect id="Rectangle_1301" x="153.6" y="198.1" class="st22" width="44.3" height="8.7"/>
							<g id="Group_7546">
								<g id="Group_7543">
									<path id="Path_6693" class="st4" d="M156.6,201.6L156.6,201.6l-0.6,0.3l-0.1-0.5l0.8-0.4h0.5v3.2h-0.6L156.6,201.6z"/>
									<path id="Path_6694" class="st4" d="M158.4,203.7c0.2,0.1,0.4,0.2,0.6,0.2c0.3,0,0.4-0.1,0.4-0.3s-0.1-0.3-0.4-0.4           c-0.5-0.2-0.7-0.4-0.7-0.7c0-0.4,0.4-0.8,0.9-0.8c0,0,0,0,0.1,0c0.2,0,0.4,0,0.6,0.1l-0.1,0.4c-0.2-0.1-0.3-0.1-0.5-0.1           c-0.2,0-0.3,0.1-0.3,0.3s0.1,0.2,0.4,0.3c0.4,0.2,0.6,0.4,0.6,0.7c0,0.4-0.3,0.8-1,0.8c-0.3,0-0.5-0.1-0.7-0.2L158.4,203.7           z"/>
									<path id="Path_6695" class="st4" d="M161.3,201.1v0.7h0.6v0.5h-0.6v1.1c0,0.3,0.1,0.4,0.3,0.4c0.1,0,0.2,0,0.2,0l0,0.5           c-0.1,0-0.3,0.1-0.4,0.1c-0.2,0-0.4-0.1-0.5-0.2c-0.1-0.2-0.2-0.4-0.2-0.7v-1.1h-0.4v-0.5h0.4v-0.6L161.3,201.1z"/>
									<path id="Path_6696" class="st4" d="M163.7,204.2l-0.8-3.4h0.7l0.3,1.5c0.1,0.4,0.2,0.8,0.2,1.2h0c0.1-0.4,0.1-0.8,0.2-1.2           l0.4-1.5h0.6l0.3,1.5c0.1,0.4,0.2,0.8,0.2,1.1h0c0.1-0.4,0.1-0.8,0.2-1.2l0.4-1.5h0.6l-0.9,3.4h-0.7l-0.4-1.6           c-0.1-0.4-0.1-0.7-0.2-1.1h0c-0.1,0.4-0.1,0.7-0.2,1.1l-0.4,1.6H163.7z"/>
									<path id="Path_6697" class="st4" d="M167.8,203.2c0,0.4,0.3,0.6,0.7,0.6c0,0,0,0,0.1,0c0.2,0,0.5,0,0.7-0.1l0.1,0.4           c-0.3,0.1-0.6,0.2-0.9,0.1c-0.6,0.1-1.2-0.4-1.3-1c0-0.1,0-0.1,0-0.2c-0.1-0.7,0.4-1.2,1.1-1.3c0,0,0.1,0,0.1,0           c0.6,0,1.1,0.5,1.1,1.1c0,0,0,0.1,0,0.1c0,0.1,0,0.2,0,0.3L167.8,203.2L167.8,203.2z M168.8,202.8c0-0.3-0.2-0.6-0.4-0.6           c0,0,0,0-0.1,0c-0.3,0-0.6,0.3-0.6,0.6H168.8z"/>
									<path id="Path_6698" class="st4" d="M170.3,203.2c0,0.4,0.3,0.6,0.7,0.6c0,0,0,0,0.1,0c0.2,0,0.5,0,0.7-0.1l0.1,0.4           c-0.3,0.1-0.6,0.2-0.9,0.1c-0.6,0.1-1.2-0.4-1.3-1c0-0.1,0-0.1,0-0.2c-0.1-0.7,0.4-1.2,1.1-1.3c0,0,0.1,0,0.1,0           c0.6,0,1.1,0.5,1.1,1.1c0,0,0,0.1,0,0.1c0,0.1,0,0.2,0,0.3L170.3,203.2L170.3,203.2z M171.4,202.8c0-0.3-0.2-0.6-0.4-0.6           c0,0,0,0-0.1,0c-0.3,0-0.6,0.3-0.6,0.6H171.4z"/>
									<path id="Path_6699" class="st4" d="M173.1,202.9L173.1,202.9c0.1-0.1,0.1-0.2,0.2-0.3l0.6-0.8h0.7l-0.9,1l1,1.4H174           l-0.7-1.1l-0.2,0.2v0.8h-0.6v-3.5h0.6V202.9z"/>
								</g>
								<g id="Group_7545">
									<g id="Group_7544">
										<path id="Path_6700" class="st19" d="M188,201.6v1.1h1.1v0.4H188v1.1h-0.4v-1.1h-1.1v-0.4h1.1v-1.1H188z"/>
										<path id="Path_6701" class="st19" d="M191.7,201v0.4l-1.4,2.9h-0.6l1.4-2.7v0h-1.5v-0.5L191.7,201L191.7,201z"/>
										<path id="Path_6702" class="st19" d="M193.3,204.3v-0.4l0.4-0.4c0.8-0.7,1.1-1.1,1.1-1.5c0-0.3-0.2-0.5-0.5-0.5            c0,0-0.1,0-0.1,0c-0.3,0-0.5,0.1-0.7,0.3l-0.2-0.4c0.3-0.2,0.6-0.3,1-0.3c0.5-0.1,1,0.3,1.1,0.9c0,0,0,0.1,0,0.1            c0,0.6-0.4,1-1,1.6l-0.3,0.2v0h1.3v0.5L193.3,204.3L193.3,204.3z"/>
										<path id="Path_6703" class="st19" d="M191.9,203.9c0-0.2,0.1-0.4,0.3-0.4c0,0,0,0,0,0c0.2,0,0.4,0.2,0.3,0.5            c0,0.2-0.2,0.3-0.3,0.3C192.1,204.3,191.9,204.1,191.9,203.9C191.9,203.9,191.9,203.9,191.9,203.9z"/>
									</g>
								</g>
							</g>
						</g>
						<path id="Path_6704" class="st23" d="M197.9,224.3c-1.2,9.7-9.4,5.9-15.8,5.9c-10.4,0-9.8,9.3-20.2,9.3c-6.2,0-8.3-3-8.3-3        v43.1h44.3"/>
						<path id="Path_6705" class="st19" d="M153.6,249.8c3.5-3.4,8.1-5.4,13-5.5c8.8,0,9,2.8,18.5,2.8c5.5,0.1,10.5-3.1,12.8-8.1        v40.8h-44.3V249.8z"/>
					</g>
					<g id="Group_7553">
						<g id="Group_7552">
							<rect id="Rectangle_1302" x="207.6" y="198.1" class="st15" width="44.3" height="81.5"/>
							<rect id="Rectangle_1303" x="207.6" y="198.1" class="st22" width="44.3" height="8.7"/>
							<g id="Group_7551">
								<g id="Group_7549">
									<path id="Path_6706" class="st4" d="M210,204.2v-0.4l0.4-0.4c0.8-0.7,1.1-1.1,1.1-1.5c0-0.3-0.2-0.5-0.5-0.5           c0,0-0.1,0-0.1,0c-0.3,0-0.5,0.1-0.7,0.3l-0.2-0.4c0.3-0.2,0.6-0.3,1-0.3c0.5-0.1,1,0.3,1.1,0.9c0,0,0,0.1,0,0.1           c0,0.6-0.4,1-1,1.6l-0.3,0.2v0h1.3v0.5L210,204.2L210,204.2z"/>
									<path id="Path_6707" class="st4" d="M212.8,202.5c0-0.3,0-0.5,0-0.7h0.5l0,0.4h0c0.2-0.3,0.5-0.4,0.8-0.4           c0.4,0,0.9,0.3,0.9,1v1.4h-0.6v-1.4c0-0.4-0.1-0.6-0.5-0.6c-0.2,0-0.4,0.1-0.5,0.4c0,0.1,0,0.1,0,0.2v1.4h-0.6V202.5z"/>
									<path id="Path_6708" class="st4" d="M217.9,200.7v2.9c0,0.3,0,0.5,0,0.7h-0.6l0-0.4h0c-0.2,0.3-0.5,0.5-0.8,0.4           c-0.6,0-1.1-0.6-1-1.2c0,0,0,0,0-0.1c-0.1-0.6,0.4-1.2,1-1.3c0,0,0.1,0,0.1,0c0.3,0,0.5,0.1,0.7,0.3h0v-1.4L217.9,200.7           L217.9,200.7z M217.3,202.8c0-0.1,0-0.1,0-0.2c0-0.3-0.3-0.4-0.5-0.4c-0.4,0-0.6,0.4-0.6,0.8s0.2,0.8,0.6,0.8           c0.3,0,0.5-0.2,0.5-0.4c0-0.1,0-0.1,0-0.2V202.8z"/>
									<path id="Path_6709" class="st4" d="M220,204.2l-0.8-3.4h0.7l0.3,1.5c0.1,0.4,0.2,0.8,0.2,1.2h0c0.1-0.4,0.1-0.8,0.2-1.2           l0.4-1.5h0.6l0.3,1.5c0.1,0.4,0.2,0.8,0.2,1.1h0c0.1-0.4,0.1-0.8,0.2-1.2l0.4-1.5h0.6l-0.9,3.4h-0.7l-0.4-1.6           c-0.1-0.4-0.1-0.7-0.2-1.1h0c-0.1,0.4-0.1,0.7-0.2,1.1l-0.4,1.6H220z"/>
									<path id="Path_6710" class="st4" d="M224,203.2c0,0.4,0.3,0.6,0.7,0.6c0,0,0,0,0.1,0c0.2,0,0.5,0,0.7-0.1l0.1,0.4           c-0.3,0.1-0.6,0.2-0.9,0.1c-0.6,0.1-1.2-0.4-1.3-1c0-0.1,0-0.1,0-0.2c-0.1-0.7,0.4-1.2,1.1-1.3c0,0,0.1,0,0.1,0           c0.6,0,1.1,0.5,1.1,1.1c0,0,0,0.1,0,0.1c0,0.1,0,0.2,0,0.3L224,203.2L224,203.2z M225,202.8c0-0.3-0.2-0.6-0.4-0.6           c0,0,0,0-0.1,0c-0.3,0-0.6,0.3-0.6,0.6H225z"/>
									<path id="Path_6711" class="st4" d="M226.6,203.2c0,0.4,0.3,0.6,0.7,0.6c0,0,0,0,0.1,0c0.2,0,0.5,0,0.7-0.1l0.1,0.4           c-0.3,0.1-0.6,0.2-0.8,0.1c-0.6,0.1-1.2-0.4-1.3-1c0-0.1,0-0.1,0-0.2c-0.1-0.7,0.4-1.2,1.1-1.3c0,0,0.1,0,0.1,0           c0.6,0,1.1,0.5,1.1,1.1c0,0,0,0.1,0,0.1c0,0.1,0,0.2,0,0.3L226.6,203.2L226.6,203.2z M227.6,202.8c0-0.3-0.2-0.6-0.4-0.6           c0,0,0,0-0.1,0c-0.3,0-0.6,0.3-0.6,0.6H227.6z"/>
									<path id="Path_6712" class="st4" d="M229.3,202.9L229.3,202.9c0.1-0.1,0.1-0.2,0.2-0.3l0.6-0.8h0.7l-0.9,1l1,1.4h-0.8           l-0.7-1.1l-0.2,0.2v0.8h-0.6v-3.5h0.6L229.3,202.9L229.3,202.9z"/>
								</g>
								<g id="Group_7550">
									<path id="Path_6713" class="st24" d="M243.2,202.7v0.4h-1.3v-0.4H243.2z"/>
									<path id="Path_6714" class="st24" d="M244.5,201.5L244.5,201.5l-0.6,0.3l-0.1-0.5l0.8-0.4h0.5v3.2h-0.6L244.5,201.5z"/>
									<path id="Path_6715" class="st24" d="M246.3,203.9c0-0.2,0.1-0.4,0.3-0.4c0,0,0,0,0,0c0.2,0,0.4,0.2,0.3,0.5           c0,0.2-0.2,0.3-0.3,0.3C246.4,204.3,246.3,204.1,246.3,203.9C246.3,203.9,246.3,203.9,246.3,203.9z"/>
									<path id="Path_6716" class="st24" d="M249.5,201.5h-1.2l-0.1,0.6c0.1,0,0.2,0,0.2,0c0.3,0,0.6,0.1,0.8,0.2           c0.3,0.2,0.4,0.5,0.4,0.8c0,0.7-0.6,1.2-1.2,1.1c0,0,0,0-0.1,0c-0.3,0-0.6-0.1-0.9-0.2l0.1-0.5c0.2,0.1,0.5,0.2,0.7,0.2           c0.3,0,0.7-0.2,0.7-0.6c0,0,0,0,0,0c0-0.4-0.3-0.6-0.9-0.6c-0.1,0-0.3,0-0.4,0l0.2-1.6h1.7L249.5,201.5L249.5,201.5z"/>
								</g>
							</g>
						</g>
						<path id="Path_6717" class="st25" d="M207.6,242.6c0,0,2.4-5.7,11.5-5.7c11.5,0,6.1,4.9,19.7,3.3c9.2-1.1,13,4.2,13,4.2v35.3        h-44.3L207.6,242.6L207.6,242.6z"/>
						<path id="Path_6718" class="st24" d="M207.6,233.5c0,0,1.2,3.9,10.3,2.6c9.6-1.4,7.3,8.8,21,7.9c5.5-0.4,10.7,2.6,13,7.6v28.1        h-44.3L207.6,233.5L207.6,233.5z"/>
					</g>
					<g id="Group_7558">
						<g id="Group_7557">
							<rect id="Rectangle_1304" x="261.7" y="198.1" class="st15" width="44.3" height="81.5"/>
							<rect id="Rectangle_1305" x="261.7" y="198.1" class="st22" width="44.3" height="8.7"/>
							<g id="Group_7556">
								<g id="Group_7554">
									<path id="Path_6719" class="st4" d="M264.2,203.6c0.2,0.1,0.5,0.2,0.7,0.2c0.5,0,0.7-0.3,0.7-0.5c0-0.4-0.4-0.6-0.7-0.6           h-0.3v-0.4h0.3c0.3,0,0.6-0.1,0.6-0.5c0-0.2-0.2-0.4-0.5-0.4c-0.2,0-0.5,0.1-0.7,0.2l-0.1-0.4c0.3-0.2,0.6-0.3,0.9-0.3           c0.7,0,1,0.4,1,0.8c0,0.4-0.3,0.7-0.6,0.8v0c0.4,0.1,0.7,0.4,0.7,0.8c0,0.5-0.5,1-1.3,1c-0.3,0-0.6-0.1-0.9-0.2           L264.2,203.6z"/>
									<path id="Path_6720" class="st4" d="M266.8,202.6c0-0.3,0-0.6,0-0.8h0.5l0,0.5h0c0.1-0.3,0.4-0.5,0.7-0.5c0,0,0.1,0,0.1,0           v0.6c-0.1,0-0.1,0-0.2,0c-0.3,0-0.5,0.2-0.5,0.5c0,0.1,0,0.1,0,0.2v1.3h-0.6L266.8,202.6L266.8,202.6z"/>
									<path id="Path_6721" class="st4" d="M270.8,200.7v2.9c0,0.3,0,0.5,0,0.7h-0.5l0-0.4h0c-0.2,0.3-0.5,0.5-0.8,0.4           c-0.6,0-1.1-0.6-1-1.2c0,0,0,0,0-0.1c-0.1-0.6,0.4-1.2,1-1.3c0,0,0.1,0,0.1,0c0.3,0,0.5,0.1,0.7,0.3h0v-1.4L270.8,200.7           L270.8,200.7z M270.2,202.8c0-0.1,0-0.1,0-0.2c0-0.3-0.3-0.4-0.5-0.4c-0.4,0-0.6,0.4-0.6,0.8s0.2,0.8,0.6,0.8           c0.3,0,0.5-0.2,0.5-0.4c0-0.1,0-0.1,0-0.2L270.2,202.8L270.2,202.8z"/>
									<path id="Path_6722" class="st4" d="M272.9,204.2l-0.8-3.4h0.7l0.3,1.5c0.1,0.4,0.2,0.8,0.2,1.2h0c0.1-0.4,0.1-0.8,0.2-1.2           l0.4-1.5h0.6l0.3,1.5c0.1,0.4,0.2,0.8,0.2,1.1h0c0.1-0.4,0.1-0.8,0.2-1.2l0.4-1.5h0.6l-0.9,3.4h-0.7l-0.4-1.6           c-0.1-0.4-0.1-0.7-0.2-1.1h0c-0.1,0.4-0.1,0.7-0.2,1.1l-0.4,1.6H272.9z"/>
									<path id="Path_6723" class="st4" d="M276.9,203.2c0,0.4,0.3,0.6,0.7,0.6c0,0,0,0,0.1,0c0.2,0,0.5,0,0.7-0.1l0.1,0.4           c-0.3,0.1-0.6,0.2-0.8,0.1c-0.6,0.1-1.2-0.4-1.3-1c0-0.1,0-0.1,0-0.2c-0.1-0.7,0.4-1.2,1.1-1.3c0,0,0.1,0,0.1,0           c0.6,0,1.1,0.5,1.1,1.1c0,0,0,0.1,0,0.1c0,0.1,0,0.2,0,0.3L276.9,203.2L276.9,203.2z M278,202.8c0-0.3-0.2-0.6-0.4-0.6           c0,0,0,0-0.1,0c-0.3,0-0.6,0.3-0.6,0.6H278z"/>
									<path id="Path_6724" class="st4" d="M279.5,203.2c0,0.4,0.3,0.6,0.7,0.6c0,0,0,0,0.1,0c0.2,0,0.5,0,0.7-0.1l0.1,0.4           c-0.3,0.1-0.6,0.2-0.9,0.1c-0.6,0.1-1.2-0.4-1.3-1c0-0.1,0-0.1,0-0.2c-0.1-0.7,0.4-1.2,1.1-1.3c0,0,0.1,0,0.1,0           c0.6,0,1.1,0.5,1.1,1.1c0,0,0,0.1,0,0.1c0,0.1,0,0.2,0,0.3L279.5,203.2L279.5,203.2z M280.6,202.8c0-0.3-0.2-0.6-0.4-0.6           c0,0,0,0-0.1,0c-0.3,0-0.6,0.3-0.6,0.6H280.6z"/>
									<path id="Path_6725" class="st4" d="M282.3,202.9L282.3,202.9c0.1-0.1,0.1-0.2,0.2-0.3l0.6-0.8h0.7l-0.9,1l1,1.4h-0.8           l-0.7-1.1l-0.2,0.2v0.8h-0.6v-3.5h0.6L282.3,202.9L282.3,202.9z"/>
								</g>
								<g id="Group_7555">
									<path id="Path_6726" class="st19" d="M295.9,201.6v1.1h1.1v0.4h-1.1v1.1h-0.4v-1.1h-1.1v-0.4h1.1v-1.1L295.9,201.6           L295.9,201.6z"/>
									<path id="Path_6727" class="st19" d="M297.7,203.8c0.1,0,0.2,0,0.3,0c0.2,0,0.5-0.1,0.7-0.3c0.2-0.2,0.4-0.4,0.4-0.7l0,0           c-0.2,0.2-0.4,0.3-0.7,0.3c-0.5,0-1-0.4-1-0.9c0,0,0-0.1,0-0.1c0-0.6,0.5-1.2,1.1-1.2c0,0,0,0,0,0c0.8,0,1.2,0.6,1.2,1.4           c0,0.6-0.2,1.1-0.6,1.5c-0.3,0.3-0.7,0.4-1.1,0.4c-0.1,0-0.2,0-0.4,0L297.7,203.8L297.7,203.8z M298,202.1           c0,0.3,0.2,0.6,0.5,0.6c0,0,0,0,0.1,0c0.2,0,0.4-0.1,0.5-0.3c0-0.1,0-0.1,0-0.2c0-0.4-0.2-0.8-0.6-0.8           C298.2,201.4,298,201.7,298,202.1L298,202.1z"/>
									<path id="Path_6728" class="st19" d="M300.1,203.9c0-0.2,0.1-0.4,0.3-0.4c0,0,0,0,0,0c0.2,0,0.4,0.2,0.3,0.5           c0,0.2-0.2,0.3-0.3,0.3C300.3,204.3,300.1,204.1,300.1,203.9C300.1,203.9,300.1,203.9,300.1,203.9z"/>
									<path id="Path_6729" class="st19" d="M302.6,204.2v-0.8h-1.5V203l1.3-2h0.7v2h0.4v0.5h-0.4v0.8H302.6z M302.6,202.9v-0.9           c0-0.2,0-0.4,0-0.6h0c-0.1,0.2-0.2,0.4-0.3,0.6l-0.6,0.9l0,0L302.6,202.9L302.6,202.9z"/>
								</g>
							</g>
						</g>
						<path id="Path_6730" class="st23" d="M261.7,238.6c0,0,0.5,1.2,3.8,1.2c5.5,0,5.3-8.8,12-8.8c6.4,0,6.5,6.5,12.3,4.3        c5.2-2,4.6-24,12.6-24c1.5-0.1,2.9,0.8,3.6,2.1v66.2h-44.3V238.6z"/>
						<path id="Path_6731" class="st19" d="M261.7,246.3c1.1-2.6,3.3-4.5,6-5.1c5.1-1.4,7.8,3.3,12.3,2.5        c10.4-1.9,4.8-11.1,12.5-14.8c3.8-1.8,5.8,0.7,8.6,0.6s4.9-8.1,4.9-8.1v58.5h-44.3L261.7,246.3z"/>
					</g>
				</g>
				<g id="Group_7560">
					<path id="Path_6732" class="st20" d="M279,188.2L177.6,289.6h-22.9l101.4-101.4L279,188.2z"/>
					<path id="Path_6733" class="st20" d="M313.6,188.2v18.7l-82.7,82.7h-47.7l101.4-101.4H313.6z"/>
				</g>
			</g>
			<g id="Group_7587">
				<path id="Path_6734" class="st14" d="M696.9,175H523.1c-2.1,0-3.8-1.7-3.8-3.8V63.6c0-2.1,1.7-3.8,3.8-3.8h173.8      c2.1,0,3.8,1.7,3.8,3.8v107.6C700.7,173.3,699,175,696.9,175C696.9,175,696.9,175,696.9,175z"/>
				<rect id="Rectangle_1306" x="526.2" y="66.7" class="st15" width="167.6" height="101.4"/>
				<rect id="Rectangle_1307" x="526.2" y="66.7" class="st16" width="167.6" height="101.4"/>
				<g id="Group_7585">
					<rect id="Rectangle_1308" x="528.8" y="73.8" class="st15" width="162.4" height="87.2"/>
					<g id="Group_7570">
						<g id="Group_7562">
							<rect id="Rectangle_1309" x="532.7" y="137" class="st26" width="11.9" height="6"/>
							<rect id="Rectangle_1310" x="532.7" y="143.1" class="st27" width="11.9" height="5.9"/>
							<rect id="Rectangle_1311" x="532.7" y="149" class="st21" width="11.9" height="12"/>
						</g>
						<g id="Group_7563">
							<rect id="Rectangle_1312" x="556.5" y="126.4" class="st26" width="11.9" height="4.8"/>
							<rect id="Rectangle_1313" x="556.5" y="131.2" class="st27" width="11.9" height="4.7"/>
							<rect id="Rectangle_1314" x="556.5" y="135.9" class="st21" width="11.9" height="25.1"/>
						</g>
						<g id="Group_7564">
							<rect id="Rectangle_1315" x="580.3" y="134.1" class="st26" width="11.9" height="9.1"/>
							<rect id="Rectangle_1316" x="580.3" y="143.2" class="st27" width="11.9" height="10.6"/>
							<rect id="Rectangle_1317" x="580.3" y="153.8" class="st21" width="11.9" height="7.2"/>
						</g>
						<g id="Group_7565">
							<rect id="Rectangle_1318" x="604.1" y="139.1" class="st26" width="11.9" height="8.6"/>
							<rect id="Rectangle_1319" x="604.1" y="147.7" class="st27" width="11.9" height="5.4"/>
							<rect id="Rectangle_1320" x="604.1" y="153.2" class="st21" width="11.9" height="7.8"/>
						</g>
						<g id="Group_7566">
							<rect id="Rectangle_1321" x="627.9" y="141.2" class="st26" width="11.9" height="2.6"/>
							<rect id="Rectangle_1322" x="627.9" y="143.8" class="st27" width="11.9" height="11.2"/>
							<rect id="Rectangle_1323" x="627.9" y="155" class="st21" width="11.9" height="6"/>
						</g>
						<g id="Group_7567">
							<rect id="Rectangle_1324" x="651.6" y="134.1" class="st26" width="11.9" height="3.6"/>
							<rect id="Rectangle_1325" x="651.6" y="137.8" class="st27" width="11.9" height="2.8"/>
							<rect id="Rectangle_1326" x="651.6" y="140.5" class="st21" width="11.9" height="20.5"/>
						</g>
						<g id="Group_7568">
							<rect id="Rectangle_1327" x="675.4" y="120.8" class="st26" width="11.9" height="7"/>
							<rect id="Rectangle_1328" x="675.4" y="127.8" class="st27" width="11.9" height="6.1"/>
							<rect id="Rectangle_1329" x="675.4" y="133.9" class="st21" width="11.9" height="27.1"/>
						</g>
						<g id="Group_7569">
							<path id="Path_6735" class="st19" d="M633.8,134.7c-13.4,0-24.5-4.2-35.3-8.3c-9.8-3.7-19-7.2-29.2-7.2         c-24,0-30.1,13.5-30.1,13.7l-1-0.4c0.2-0.6,6.4-14.3,31.1-14.3c10.4,0,19.7,3.5,29.6,7.3c10.7,4,21.7,8.2,34.9,8.2         c12.6,0,17.9-4.5,23.5-9.3c5.5-4.7,11.2-9.5,24-9.5v1.1c-12.4,0-17.7,4.5-23.3,9.2C652.5,129.8,646.8,134.7,633.8,134.7z"/>
							<circle id="Ellipse_181" class="st19" cx="538.7" cy="132.6" r="2.8"/>
							<circle id="Ellipse_182" class="st19" cx="562.5" cy="119" r="2.8"/>
							<circle id="Ellipse_183" class="st19" cx="586.2" cy="121.4" r="2.8"/>
							<circle id="Ellipse_184" class="st19" cx="610" cy="129.9" r="2.8"/>
							<circle id="Ellipse_185" class="st19" cx="633.8" cy="134.1" r="2.8"/>
							<circle id="Ellipse_186" class="st19" cx="657.6" cy="124.7" r="2.8"/>
							<circle id="Ellipse_187" class="st19" cx="681.4" cy="115.3" r="2.8"/>
						</g>
					</g>
					<g id="Group_7577">
						<g id="Group_7573">
							<g id="Group_7571">
								<path id="Path_6736" class="st28" d="M545.7,80.4c-7,0-12.6,5.6-12.6,12.6c0,7,5.6,12.6,12.6,12.6c3.3,0,6.5-1.3,8.9-3.7          l-8.9-8.9V80.4z"/>
								<path id="Path_6737" class="st26" d="M554.6,84.1c-2.4-2.4-5.6-3.7-8.9-3.7V93L554.6,84.1z"/>
								<path id="Path_6738" class="st29" d="M554.6,84.1l-8.9,8.9l8.9,8.9C559.5,97,559.5,89,554.6,84.1z"/>
							</g>
							<g id="Group_7572">
								<circle id="Ellipse_188" class="st28" cx="563.9" cy="83.9" r="2.2"/>
								<circle id="Ellipse_189" class="st29" cx="563.9" cy="93" r="2.2"/>
								<circle id="Ellipse_190" class="st26" cx="563.9" cy="102.1" r="2.2"/>
							</g>
						</g>
						<g id="Group_7574">
							<rect id="Rectangle_1330" x="568.4" y="82.2" class="st4" width="17.9" height="0.6"/>
							<rect id="Rectangle_1331" x="568.4" y="83.6" class="st4" width="17.9" height="0.6"/>
							<rect id="Rectangle_1332" x="568.4" y="85.1" class="st4" width="17.9" height="0.6"/>
						</g>
						<g id="Group_7575">
							<rect id="Rectangle_1333" x="568.4" y="91.3" class="st4" width="17.9" height="0.6"/>
							<rect id="Rectangle_1334" x="568.4" y="92.7" class="st4" width="17.9" height="0.6"/>
							<rect id="Rectangle_1335" x="568.4" y="94.2" class="st4" width="17.9" height="0.6"/>
						</g>
						<g id="Group_7576">
							<rect id="Rectangle_1336" x="568.4" y="100.4" class="st4" width="17.9" height="0.6"/>
							<rect id="Rectangle_1337" x="568.4" y="101.8" class="st4" width="17.9" height="0.6"/>
							<rect id="Rectangle_1338" x="568.4" y="103.3" class="st4" width="17.9" height="0.6"/>
						</g>
					</g>
					<g id="Group_7584">
						<g id="Group_7579">
							<g id="Group_7578">
								<rect id="Rectangle_1339" x="647" y="79.7" class="st3" width="36.1" height="1.1"/>
								<rect id="Rectangle_1340" x="647" y="82.6" class="st3" width="36.1" height="1.1"/>
							</g>
							<rect id="Rectangle_1341" x="638.6" y="78.8" class="st28" width="5.9" height="5.9"/>
						</g>
						<g id="Group_7581">
							<g id="Group_7580">
								<rect id="Rectangle_1342" x="647" y="87.4" class="st3" width="36.1" height="1.1"/>
								<rect id="Rectangle_1343" x="647" y="90.3" class="st3" width="36.1" height="1.1"/>
							</g>
							<rect id="Rectangle_1344" x="638.6" y="86.5" class="st27" width="5.9" height="5.9"/>
						</g>
						<g id="Group_7583">
							<g id="Group_7582">
								<rect id="Rectangle_1345" x="647" y="95.1" class="st3" width="36.1" height="1.1"/>
								<rect id="Rectangle_1346" x="647" y="98" class="st3" width="36.1" height="1.1"/>
							</g>
							<rect id="Rectangle_1347" x="638.6" y="94.2" class="st26" width="5.9" height="5.9"/>
						</g>
					</g>
				</g>
				<g id="Group_7586">
					<path id="Path_6739" class="st20" d="M659.3,66.7L557.8,168.1H535L636.4,66.7H659.3z"/>
					<path id="Path_6740" class="st20" d="M693.8,66.7v18.7l-82.7,82.7h-47.7L664.9,66.7H693.8z"/>
				</g>
			</g>
			<g id="Group_7608">
				<path id="Path_6741" class="st14" d="M696.9,296.5H523.1c-2.1,0-3.8-1.7-3.8-3.8V185.1c0-2.1,1.7-3.8,3.8-3.8h173.8      c2.1,0,3.8,1.7,3.8,3.8v107.6C700.7,294.8,699,296.5,696.9,296.5C696.9,296.5,696.9,296.5,696.9,296.5z"/>
				<rect id="Rectangle_1348" x="526.2" y="188.2" class="st15" width="167.6" height="101.4"/>
				<rect id="Rectangle_1349" x="526.2" y="188.2" class="st16" width="167.6" height="101.4"/>
				<g id="Group_7601">
					<g id="Group_7599">
						<g id="Group_7598">
							<path id="Path_6742" class="st30" d="M545,269.7l-1.8-1.4l11.8-14.5l15.9,4.1l9.6,8.7l12.3-8.6l16,5.2l13.4-10.1l20,3.9         l14.3-12l19.7-7.3l0.8,2.1l-19.3,7.2l-14.9,12.4l-20.1-3.9l-13.5,10.2l-16-5.3l-12.9,9l-10.5-9.5l-13.9-3.6L545,269.7z"/>
							<g id="Group_7588">
								<circle id="Ellipse_191" class="st31" cx="555.4" cy="255.1" r="3.8"/>
								<circle id="Ellipse_192" class="st2" cx="555.4" cy="255.1" r="2.7"/>
								<circle id="Ellipse_193" class="st4" cx="555.4" cy="255.1" r="2.2"/>
							</g>
							<g id="Group_7589">
								<circle id="Ellipse_194" class="st31" cx="544.1" cy="269" r="3.8"/>
								<circle id="Ellipse_195" class="st2" cx="544.1" cy="269" r="2.7"/>
								<circle id="Ellipse_196" class="st4" cx="544.1" cy="269" r="2.2"/>
							</g>
							<g id="Group_7590">
								<circle id="Ellipse_197" class="st31" cx="570.3" cy="259" r="3.8"/>
								<circle id="Ellipse_198" class="st2" cx="570.3" cy="259" r="2.7"/>
								<circle id="Ellipse_199" class="st4" cx="570.3" cy="259" r="2.2"/>
							</g>
							<g id="Group_7591">
								<circle id="Ellipse_200" class="st31" cx="580.4" cy="268.1" r="3.8"/>
								<circle id="Ellipse_201" class="st2" cx="580.4" cy="268.1" r="2.7"/>
								<circle id="Ellipse_202" class="st4" cx="580.4" cy="268.1" r="2.2"/>
							</g>
							<g id="Group_7592">
								<circle id="Ellipse_203" class="st31" cx="593" cy="259.3" r="3.8"/>
								<circle id="Ellipse_204" class="st2" cx="593" cy="259.3" r="2.7"/>
								<circle id="Ellipse_205" class="st4" cx="593" cy="259.3" r="2.2"/>
							</g>
							<g id="Group_7593">
								<circle id="Ellipse_206" class="st31" cx="609" cy="264.6" r="3.8"/>
								<circle id="Ellipse_207" class="st2" cx="609" cy="264.6" r="2.7"/>
								<circle id="Ellipse_208" class="st4" cx="609" cy="264.6" r="2.2"/>
							</g>
							<g id="Group_7594">
								<circle id="Ellipse_209" class="st31" cx="622.4" cy="254.4" r="3.8"/>
								<circle id="Ellipse_210" class="st2" cx="622.4" cy="254.4" r="2.7"/>
								<circle id="Ellipse_211" class="st4" cx="622.4" cy="254.4" r="2.2"/>
							</g>
							<g id="Group_7595">
								<circle id="Ellipse_212" class="st31" cx="642.5" cy="258.3" r="3.8"/>
								<circle id="Ellipse_213" class="st2" cx="642.5" cy="258.3" r="2.7"/>
								<circle id="Ellipse_214" class="st4" cx="642.5" cy="258.3" r="2.2"/>
							</g>
							<g id="Group_7596">
								<circle id="Ellipse_215" class="st31" cx="657.1" cy="246.1" r="3.8"/>
								<circle id="Ellipse_216" class="st2" cx="657.1" cy="246.1" r="2.7"/>
								<circle id="Ellipse_217" class="st4" cx="657.1" cy="246.1" r="2.2"/>
							</g>
							<g id="Group_7597">
								<circle id="Ellipse_218" class="st31" cx="676.6" cy="238.9" r="3.8"/>
								<circle id="Ellipse_219" class="st2" cx="676.6" cy="238.9" r="2.7"/>
								<circle id="Ellipse_220" class="st4" cx="676.6" cy="238.9" r="2.2"/>
							</g>
						</g>
						<path id="Path_6743" class="st28" d="M676.6,242.7c-1.2,0-2.3-0.5-3-1.5l-12.7,4.7c0,0.1,0,0.1,0,0.2c0,2.1-1.7,3.8-3.8,3.8        c-0.7,0-1.5-0.2-2.1-0.6l-9,7.5c0.8,1.9-0.1,4.2-2.1,5s-4.2-0.1-5-2.1c-0.1-0.3-0.2-0.7-0.3-1l-12.9-2.5        c-1,1.9-3.3,2.5-5.2,1.6c-0.1-0.1-0.3-0.2-0.4-0.3l-7.6,5.8c0.7,2-0.3,4.2-2.3,4.9s-4.2-0.3-4.9-2.3c-0.1-0.4-0.2-0.8-0.2-1.3        c0,0,0,0,0,0l-9.1-3c-1.2,1.7-3.6,2.1-5.3,0.9c0,0-0.1-0.1-0.1-0.1L584,267c0.6,2-0.5,4.2-2.5,4.8c-2,0.6-4.2-0.5-4.8-2.5        c-0.1-0.4-0.2-0.8-0.2-1.1c0-0.6,0.1-1.1,0.4-1.6l-4.6-4.2c-1.8,1.1-4.1,0.5-5.2-1.4c-0.3-0.5-0.5-1.1-0.5-1.7l-7.9-2        c-1,1.6-2.9,2.2-4.6,1.5l-6.7,8.3c1.2,1.8,0.7,4.1-1.1,5.3c-0.6,0.4-1.4,0.6-2.1,0.6h136.3v-34        C680.4,241,678.7,242.7,676.6,242.7z"/>
					</g>
					<g id="Group_7600">
						<rect id="Rectangle_1350" x="556.5" y="278.7" class="st32" width="107.7" height="1.4"/>
						<rect id="Rectangle_1351" x="556.5" y="282.3" class="st32" width="107.7" height="1.4"/>
					</g>
				</g>
				<g id="Group_7606">
					<g id="Group_7602">
						<rect id="Rectangle_1352" x="534.7" y="224.7" class="st29" width="6.4" height="20.7"/>
						<rect id="Rectangle_1353" x="542.9" y="231.1" class="st28" width="6.4" height="14.3"/>
						<rect id="Rectangle_1354" x="553.8" y="222.4" class="st29" width="6.4" height="23"/>
						<rect id="Rectangle_1355" x="562" y="217.8" class="st28" width="6.4" height="27.6"/>
						<rect id="Rectangle_1356" x="572.9" y="212.9" class="st29" width="6.4" height="32.4"/>
						<rect id="Rectangle_1357" x="581.1" y="211.3" class="st28" width="6.4" height="34.1"/>
						<rect id="Rectangle_1358" x="592" y="199.4" class="st29" width="6.4" height="46"/>
						<rect id="Rectangle_1359" x="600.2" y="191.3" class="st28" width="6.4" height="54.1"/>
					</g>
					<g id="Group_7605">
						<g id="Group_7603">
							<rect id="Rectangle_1360" x="633.2" y="209.9" class="st3" width="52.1" height="1.6"/>
							<rect id="Rectangle_1361" x="633.2" y="214.1" class="st3" width="52.1" height="1.6"/>
						</g>
						<g id="Group_7604">
							<rect id="Rectangle_1362" x="633.2" y="221" class="st3" width="52.1" height="1.6"/>
							<rect id="Rectangle_1363" x="633.2" y="225.2" class="st3" width="52.1" height="1.6"/>
						</g>
						<rect id="Rectangle_1364" x="621.1" y="208.6" class="st28" width="8.5" height="8.5"/>
						<rect id="Rectangle_1365" x="621.1" y="219.7" class="st29" width="8.5" height="8.5"/>
					</g>
				</g>
				<g id="Group_7607">
					<path id="Path_6744" class="st20" d="M693.8,188.2v18.7l-82.7,82.7h-47.7l101.4-101.4H693.8z"/>
					<path id="Path_6745" class="st20" d="M659.3,188.2L557.8,289.6H535l101.4-101.4L659.3,188.2z"/>
				</g>
			</g>
			<g id="Group_7627">
				<path id="Path_6746" class="st14" d="M316.7,175H142.9c-2.1,0-3.8-1.7-3.8-3.8v0V63.6c0-2.1,1.7-3.8,3.8-3.8l0,0h173.8      c2.1,0,3.8,1.7,3.8,3.8v107.6C320.5,173.3,318.8,175,316.7,175C316.7,175,316.7,175,316.7,175z"/>
				<rect id="Rectangle_1366" x="146" y="66.7" class="st15" width="167.6" height="101.4"/>
				<rect id="Rectangle_1367" x="146" y="66.7" class="st16" width="167.6" height="101.4"/>
				<g id="Group_7625">
					<g id="Group_7615">
						<g id="Group_7611">
							<g id="Group_7610">
								<g id="Group_7609">
									<rect id="Rectangle_1368" x="152.7" y="81.5" class="st20" width="30.8" height="78"/>
									<rect id="Rectangle_1369" x="183.5" y="81.5" class="st33" width="30.8" height="78"/>
									<rect id="Rectangle_1370" x="214.4" y="81.5" class="st20" width="30.8" height="78"/>
									<rect id="Rectangle_1371" x="245.2" y="81.5" class="st33" width="30.8" height="78"/>
									<rect id="Rectangle_1372" x="276" y="81.5" class="st20" width="30.8" height="78"/>
								</g>
								<path id="Path_6747" class="st34" d="M304.9,75H154.6c-1.1,0-1.9,0.9-1.9,1.9v4.6h154.2v-4.6C306.9,75.9,306,75,304.9,75          C304.9,75,304.9,75,304.9,75z"/>
								<circle id="Ellipse_221" class="st18" cx="155.6" cy="78.3" r="1.5"/>
								<circle id="Ellipse_222" class="st35" cx="159.7" cy="78.3" r="1.5"/>
								<circle id="Ellipse_223" class="st36" cx="163.7" cy="78.3" r="1.5"/>
							</g>
							<path id="Path_6748" class="st19" d="M152.7,150.1l4.7-2.9l4.4,2.9l4.3-3.4l3.2,1.7l3-2.5l5.2,2.6l3.4,2.3l2.6-1.1l3.1-3.1         l2.9-2.8l3.4,1.6l4.9-2.9l6.3-1.6l2.2-4.6l2.1,3l4.5,2.6l3.9,2.8l5.6-2.1l9.7,1l3.8-2.3l1.4,2.3l3.5-2.7l1.9,2.7l4.6,2.3         l2.6-2.8l4.3-6.7l3.5,4.3l6.3,2.1l5-3l2.9-6.3h5.1l2.9-6.9l5-3.9l2.9-10.4h4.6l3.6-6.5l4.7,3.3l3.2,3.6l3-0.7v47.6H152.7         V150.1z"/>
							<path id="Path_6749" class="st17" d="M180.9,151.4l-3.7-2.5l-4.8-2.4l-3,2.5l-3.2-1.7l-4.4,3.4l-4.5-2.9l-4.7,2.8v-1.3         l4.7-2.9l4.4,2.8l4.3-3.4l3.2,1.7l3-2.5l5.5,2.7l3.2,2.2l2.2-0.9l3-3.1l3.2-3l3.5,1.6l4.8-2.8l6.1-1.5l2.5-5.2l2.6,3.7         l4.4,2.5l3.7,2.6l5.5-2.1l9.6,1l4.1-2.5l1.3,2.3l3.5-2.7l2.2,3.1l4.1,2l2.3-2.5l4.7-7.3l3.9,4.8l6,1.9l4.6-2.8l3-6.5h5.1         l2.8-6.7l4.9-3.8l3-10.6h4.6l3.7-6.7l5.3,3.8l3,3.3l2.8-0.6v1.1l-3.2,0.7l-3.3-3.8l-4.1-2.9l-3.4,6.2h-4.5l-2.8,10.1l-5,3.9         l-3,7.1h-5.1l-2.8,6.2l-5.3,3.3l-6.7-2.2l-3.2-3.9l-3.9,6.1l-2.9,3.1l-5.1-2.5l-1.7-2.4l-3.5,2.7l-1.4-2.4l-3.4,2.1l-9.7-1         l-5.8,2.2l-4.1-2.9l-4.6-2.7l-1.6-2.3l-1.9,4l-6.5,1.6l-5.1,3l-3.3-1.5l-2.7,2.5l-3.3,3.2L180.9,151.4z"/>
						</g>
						<g id="Group_7614">
							<g id="Group_7613">
								<path id="Path_6750" class="st17" d="M262.9,109.8h-18.2c-1.2,0-2.2-1-2.2-2.2v-5.5c0-1.2,1-2.2,2.2-2.2h18.2          c1.2,0,2.2,1,2.2,2.2v0v5.5C265.1,108.8,264.1,109.8,262.9,109.8L262.9,109.8z"/>
								<g id="Group_7612">
									<path id="Path_6751" class="st4" d="M246.4,103.6v1.4h1.4v0.5h-1.4v1.4h-0.5v-1.4h-1.4V105h1.4v-1.4H246.4z"/>
									<path id="Path_6752" class="st4" d="M249.5,103.6L249.5,103.6l-0.8,0.4l-0.1-0.6l1-0.5h0.6v4.1h-0.7L249.5,103.6           L249.5,103.6z"/>
									<path id="Path_6753" class="st4" d="M254.5,104.9c0,1.3-0.5,2.1-1.5,2.1c-0.9,0-1.4-0.8-1.4-2.1c0-1.3,0.5-2.1,1.5-2.1           C254,102.8,254.5,103.7,254.5,104.9z M252.3,104.9c0,1,0.3,1.5,0.7,1.5c0.4,0,0.7-0.5,0.7-1.5c0-0.9-0.2-1.5-0.7-1.5           C252.6,103.4,252.3,103.9,252.3,104.9L252.3,104.9z"/>
									<path id="Path_6754" class="st4" d="M257.8,104.9c0,1.3-0.5,2.1-1.5,2.1c-0.9,0-1.4-0.8-1.4-2.1c0-1.3,0.5-2.1,1.5-2.1           C257.4,102.8,257.8,103.7,257.8,104.9z M255.7,104.9c0,1,0.3,1.5,0.7,1.5c0.4,0,0.7-0.5,0.7-1.5c0-0.9-0.2-1.5-0.7-1.5           C255.9,103.4,255.7,103.9,255.7,104.9L255.7,104.9z"/>
									<path id="Path_6755" class="st4" d="M260.3,104c0,0.9-0.5,1.3-1.1,1.3c-0.6,0-1.1-0.5-1-1.1c0,0,0-0.1,0-0.1           c-0.1-0.6,0.3-1.2,1-1.3c0,0,0.1,0,0.1,0C259.9,102.8,260.3,103.3,260.3,104z M258.8,104c0,0.5,0.2,0.8,0.5,0.8           s0.5-0.3,0.5-0.8c0-0.4-0.1-0.8-0.5-0.8C258.9,103.2,258.8,103.6,258.8,104L258.8,104z M259.3,107l2.3-4.2h0.4l-2.4,4.2           H259.3z M263.1,105.7c0,0.8-0.5,1.3-1.1,1.3c-0.6,0-1.1-0.5-1-1.1c0,0,0-0.1,0-0.1c-0.1-0.6,0.4-1.2,1-1.3c0,0,0.1,0,0.1,0           C262.7,104.5,263.1,105,263.1,105.7L263.1,105.7z M261.6,105.7c0,0.5,0.2,0.8,0.5,0.8s0.5-0.3,0.5-0.8           c0-0.5-0.1-0.8-0.5-0.8C261.7,104.9,261.6,105.3,261.6,105.7L261.6,105.7z"/>
								</g>
							</g>
							<path id="Path_6756" class="st17" d="M293.7,105.4H267c-0.3,0-0.5-0.3-0.5-0.6c0-0.3,0.2-0.5,0.5-0.5h26.7         c0.3,0,0.5,0.3,0.5,0.6C294.2,105.2,294,105.4,293.7,105.4z"/>
						</g>
					</g>
					<g id="Group_7624">
						<g id="Group_7617">
							<g id="Group_7616">
								<rect id="Rectangle_1373" x="166.6" y="88.2" class="st3" width="36.1" height="1.1"/>
								<rect id="Rectangle_1374" x="166.6" y="91.1" class="st3" width="36.1" height="1.1"/>
							</g>
							<rect id="Rectangle_1375" x="158.2" y="87.3" class="st19" width="5.9" height="5.9"/>
						</g>
						<g id="Group_7619">
							<g id="Group_7618">
								<rect id="Rectangle_1376" x="166.6" y="95.9" class="st3" width="36.1" height="1.1"/>
								<rect id="Rectangle_1377" x="166.6" y="98.8" class="st3" width="36.1" height="1.1"/>
							</g>
							<rect id="Rectangle_1378" x="158.2" y="95" class="st19" width="5.9" height="5.9"/>
						</g>
						<g id="Group_7621">
							<g id="Group_7620">
								<rect id="Rectangle_1379" x="166.6" y="103.6" class="st3" width="36.1" height="1.1"/>
								<rect id="Rectangle_1380" x="166.6" y="106.5" class="st3" width="36.1" height="1.1"/>
							</g>
							<rect id="Rectangle_1381" x="158.2" y="102.7" class="st19" width="5.9" height="5.9"/>
						</g>
						<g id="Group_7623">
							<g id="Group_7622">
								<rect id="Rectangle_1382" x="166.6" y="111.3" class="st3" width="36.1" height="1.1"/>
								<rect id="Rectangle_1383" x="166.6" y="114.2" class="st3" width="36.1" height="1.1"/>
							</g>
							<rect id="Rectangle_1384" x="158.2" y="110.4" class="st19" width="5.9" height="5.9"/>
						</g>
					</g>
				</g>
				<g id="Group_7626">
					<path id="Path_6757" class="st20" d="M279,66.7L177.6,168.1h-22.9L256.2,66.7H279z"/>
					<path id="Path_6758" class="st20" d="M313.6,66.7v18.7l-82.7,82.7h-47.7L284.6,66.7H313.6z"/>
				</g>
			</g>
		</g>
	</g>
	<g id="Group_7667">
		<g id="Group_7640">
			<g id="Group_7639">
				<g id="Group_7631">
					<path id="Path_6759" class="st37" d="M419.9,248.1h-13v-32.3h26.1v32.3H419.9z"/>
					<g id="Group_7630">
						<ellipse id="Ellipse_224" class="st37" cx="444" cy="210.9" rx="6.3" ry="8.2"/>
						<ellipse id="Ellipse_225" class="st37" cx="395.8" cy="210.9" rx="6.3" ry="8.2"/>
						<path id="Path_6760" class="st37" d="M395.8,217l-2.4-22.4c0-13.9,11.9-25.1,26.5-25.1l0,0c14.6,0,26.5,11.2,26.5,25.1        L444,217c0,13.9-9.4,25.1-24.1,25.1l0,0C405.3,242.1,395.8,230.8,395.8,217z"/>
						<path id="Path_6761" class="st38" d="M395.6,196.2l2.9-5.1h43.1l2.3,5.1h4.4c0,0,3.3-23.2-1-27.2c-5.7,1.9-10.5-6.8-27.4-6.8        c-28.7,0-25.8,20.1-25.8,20.1s-5.9,6.1-2.9,13.9L395.6,196.2L395.6,196.2z"/>
						<path id="Path_6762" class="st39" d="M448.3,196.2l-2.7,14.7l-1.2,9.6c-1.6,12.3-13,19.2-24.6,19.2s-22.7-6.6-24.5-18.7        l-1.5-10l-2.7-14.7c-0.5-1.4-0.8-2.8-0.8-4.2c0.1-3.6,1.4-7,3.8-9.6c0,0-2.9-20.1,25.8-20.1c16.9,0,21.7,8.7,27.4,6.8        c1.6,1.5,2.2,5.7,2.2,10.4C449.5,185,449.1,190.6,448.3,196.2z"/>
						<path id="Path_6763" class="st40" d="M446.9,203.7l-1.3,7.2l-1.2,9.6c-1.6,12.3-13,19.2-24.6,19.2s-22.7-6.6-24.5-18.7        l-1.5-10l-1.3-7v0c0-0.6,0.8-10.4,0.8-14.1c0-3.8,3.4-7.4,3.4-7.4s4.4-16.1,20.7-16.1c9.7,0,19.3,2.5,27.7,7.3        C447.9,180.3,446.9,203.7,446.9,203.7z"/>
					</g>
				</g>
				<path id="Path_6764" class="st3" d="M432.9,241.9h-26.1l-4.8,6.2l17.9-1.1l17.9,1.1L432.9,241.9z"/>
				<g id="Group_7638">
					<g id="Group_7634">
						<g id="Group_7633">
							<g id="Group_7632">
								<path id="Path_6765" class="st15" d="M460.8,496.9c1.8,3.3,6.8,5.1,10.3,6.2c4.2,1.3,6.8,0.9,7.6,5.2          c0.1,0.4,0.1,0.8,0.2,1.2l0.4,3.5c0.1,0.9-0.3,1.8-1.1,2.2c-3.3,1.8-13.1,6-29.7,6c-4.4,0.1-8.8-0.6-12.9-2.2          c-1.4-0.6-2.3-1.9-2.3-3.4v-4.1l1.3-14.5H460.8z"/>
								<path id="Path_6766" class="st41" d="M433.3,511.3v4.1c0,1.5,0.9,2.8,2.3,3.4c4.1,1.6,8.5,2.3,12.9,2.2          c16.6,0,26.4-4.2,29.7-6c0.8-0.4,1.3-1.3,1.1-2.2l-0.4-3.5c0-0.2,0-0.4-0.1-0.6c-3.9,1.9-13.1,5-20.6-3.7          c-2.8-3.4-6.2-6.2-10.1-8.3h-13.5L433.3,511.3z"/>
							</g>
							<path id="Path_6767" class="st42" d="M439.4,410.2l-8.1,88.8c-0.1,1.1,0.7,2.1,1.7,2.3c5.4,0.9,10.9,1.3,16.5,1.2         c8.3,0,12.7-0.7,14.7-1.2c0.8-0.2,1.5-0.9,1.6-1.8l17.6-109.5c0.7-9.1-6-17.1-15.1-17.8c-0.4,0-0.9-0.1-1.3-0.1l0,0         c-13.2,0-24.2,9.9-25.7,23L439.4,410.2z"/>
						</g>
						<path id="Path_6768" class="st41" d="M431.2,498.9c-0.1,1.1,0.6,2.1,1.7,2.3c3.3,0.6,6.6,0.9,10,1.1l20.1-130        c-11.6,1.7-20.6,11-21.9,22.7l-1.7,15.2L431.2,498.9z"/>
					</g>
					<g id="Group_7637">
						<g id="Group_7636">
							<g id="Group_7635">
								<path id="Path_6769" class="st15" d="M379,496.9c-1.8,3.3-6.8,5.1-10.3,6.2c-4.2,1.3-6.8,0.9-7.6,5.2          c-0.1,0.4-0.1,0.8-0.2,1.2l-0.4,3.5c-0.1,0.9,0.3,1.8,1.1,2.2c3.3,1.8,13.1,6,29.7,6c4.4,0.1,8.8-0.6,12.9-2.2          c1.4-0.6,2.3-1.9,2.3-3.4v-4.1l-1.3-14.5H379z"/>
								<path id="Path_6770" class="st41" d="M406.5,511.3v4.1c0,1.5-0.9,2.8-2.3,3.4c-4.1,1.6-8.5,2.3-12.9,2.2          c-16.6,0-26.4-4.2-29.7-6c-0.8-0.4-1.3-1.3-1.1-2.2l0.4-3.5c0-0.2,0-0.4,0.1-0.6c3.9,1.9,13.1,5,20.6-3.7          c2.8-3.4,6.2-6.2,10.1-8.3h13.5L406.5,511.3z"/>
							</g>
							<path id="Path_6771" class="st42" d="M400.4,410.2l8.1,88.8c0.1,1.1-0.7,2.1-1.7,2.3c-5.4,0.9-10.9,1.3-16.5,1.2         c-8.3,0-12.7-0.7-14.7-1.2c-0.8-0.2-1.5-0.9-1.6-1.8l-17.6-109.5c-0.7-9.1,6-17.1,15.1-17.8c0.4,0,0.9-0.1,1.3-0.1l0,0         c13.2,0,24.2,9.9,25.7,23L400.4,410.2z"/>
						</g>
						<path id="Path_6772" class="st41" d="M408.6,498.9c0.1,1.1-0.6,2.1-1.7,2.3c-3.3,0.6-6.6,0.9-10,1.1l-20.1-130        c11.6,1.7,20.6,11,21.9,22.7l1.7,15.2L408.6,498.9z"/>
					</g>
				</g>
				<path id="Path_6773" class="st43" d="M447.4,421.9h-54.9c-11.2,0-20.3-9.1-20.3-20.3v-24.1h95.6v24.1      C467.7,412.8,458.6,421.9,447.4,421.9C447.4,421.9,447.4,421.9,447.4,421.9z"/>
				<path id="Path_6774" class="st4" d="M467.7,381.5c0,0-9.3,12.4-50,12.4c-40.5,0-45.6-12.4-45.6-12.4l-1.8-114.4      c0.1-6.3,3.4-12.2,8.8-15.6c3.6-2.3,7.7-3.5,11.9-3.4c0,0,11.2-1.1,28.9-1.1s29.2,1.1,29.2,1.1c3,0,6.1,0.5,8.9,1.7      c7,2.9,11.6,9.7,11.5,17.2L467.7,381.5z"/>
			</g>
			<path id="Path_6775" class="st37" d="M488.3,306c0.7,0.3,1,6.8,2.8,6.8c0.8,0,1.4-6.1,1.2-9.6c0-1,0.5-2.6,2.8-2.8     c2.6-0.2,3.4,0.9,3.4,0.9s2.8-2.8,6,0.4c0,0,3.6-1.7,6.2,2.4c0,0,3.2-0.3,4.7,4.4s2.2,11.9-0.2,16.2s-3.1,9.2-12.5,9.2     c-11.5,0-10.5-3.8-12.7-9.1C487.4,318.6,481.9,303.4,488.3,306z"/>
			<path id="Path_6776" class="st4" d="M467.7,258.9l24.3,57.2c0,0,7.7-3.2,12.7-0.1c5.8,3.6,10,15.3,4,21s-12.7,11.7-14.3,13.3     s-9.1,2.3-13.4-3.5s-12.4-17.3-12.4-17.3L467.7,258.9z"/>
			<path id="Path_6777" class="st37" d="M351.5,306c-0.7,0.3-1,6.8-2.8,6.8c-0.8,0-1.4-6.1-1.2-9.6c0-1-0.5-2.6-2.8-2.8     c-2.6-0.2-3.4,0.9-3.4,0.9s-2.8-2.8-6,0.4c0,0-3.6-1.7-6.2,2.4c0,0-3.2-0.3-4.7,4.4s-2.2,11.9,0.2,16.2s3.1,9.2,12.5,9.2     c11.5,0,10.5-3.8,12.7-9.1C352.4,318.6,357.9,303.4,351.5,306z"/>
			<path id="Path_6778" class="st4" d="M372.1,258.9l-24.3,57.2c0,0-7.7-3.2-12.7-0.1c-5.8,3.6-10,15.3-4,21s12.7,11.7,14.3,13.3     s9.1,2.3,13.4-3.5s12.4-17.3,12.4-17.3L372.1,258.9z"/>
			<path id="Path_6779" class="st3" d="M510.3,335c-4.9,4.8-18.2,17.1-23.2,15c-4.9-2-14.6-16.4-18.5-22.4c-1.1-1.7-1.7-2.7-1.7-2.7     l-1.6,58.9c-4.8,3.5-17.7,10.2-47.6,10.2c-27.5,0-38.6-5.7-43-9.4l-1.6-59.7c0,0-0.7,1.1-1.9,2.9c-4,6.2-13.5,20.2-18.4,22.2     c-5.1,2.2-19-10.8-23.6-15.3l0,0c-3-6.1,0.8-15.4,5.8-18.5l0.3-0.1l0.6,0.1c0,0,6.5,6.8,8.8,8c1.7,0.9,17.3-36.7,25.5-55.2     c2.4-5.5,4.2-9.4,4.7-9.9c2.3-2.5,4.7-9.8,28.4-9.8h33.1c23.8,0,26.2,7.4,28.4,9.8c0.5,0.6,2.2,4.2,4.6,9.6     c8.1,18.4,23.9,56.4,25.6,55.5c2.2-1.2,8.8-8,8.8-8l0.5-0.1c0.1,0,0.1,0.1,0.2,0.1C509.8,319.3,513.7,328.9,510.3,335z"/>
		</g>
		<g id="Group_7666">
			<g id="Group_7641">
				<path id="Path_6780" class="st44" d="M475.5,401.6H364.3c-7.3,0-13.2,5.9-13.2,13.2v27.6h137.4v-27.6      C488.6,407.5,482.7,401.6,475.5,401.6C475.5,401.6,475.5,401.6,475.5,401.6z"/>
				<path id="Path_6781" class="st45" d="M488.6,442.4H351.2v-7.2c0-7.3,5.9-13.2,13.2-13.2h111.1c7.3,0,13.2,5.9,13.2,13.2      L488.6,442.4L488.6,442.4z"/>
				<path id="Path_6782" class="st44" d="M475.1,442.4H364.7l-3.2-146c-0.3-12.1,8.4-22,19.1-22h78.7c10.7,0,19.3,10,19.1,22      L475.1,442.4z"/>
				<path id="Path_6783" class="st45" d="M475.1,442.4H364.7l-3.2-132.9c-0.3-12.1,8.4-22,19.1-22h78.7c10.7,0,19.3,10,19.1,22      L475.1,442.4z"/>
			</g>
			<g id="Group_7660">
				<g id="Group_7644">
					<path id="Path_6784" class="st15" d="M357.3,517.3c0-3.7,1.4-6.9,3.4-8.6v-1.3h3.4c3.8,0,6.9,4.4,6.9,9.9s-3.1,9.9-6.9,9.9       h-3.4v-1.3C358.7,524.2,357.3,521,357.3,517.3z"/>
					<g id="Group_7643">
						<g id="Group_7642">
							<ellipse id="Ellipse_226" class="st46" cx="360.7" cy="517.3" rx="6.9" ry="9.9"/>
							<ellipse id="Ellipse_227" class="st4" cx="360.7" cy="517.3" rx="3.5" ry="5"/>
						</g>
					</g>
				</g>
				<g id="Group_7647">
					<path id="Path_6785" class="st15" d="M482.5,517.3c0-3.7-1.4-6.9-3.4-8.6v-1.3h-3.4c-3.8,0-6.9,4.4-6.9,9.9s3.1,9.9,6.9,9.9       h3.4v-1.3C481.1,524.2,482.5,521,482.5,517.3z"/>
					<g id="Group_7646">
						<g id="Group_7645">
							<ellipse id="Ellipse_228" class="st46" cx="479.1" cy="517.3" rx="6.9" ry="9.9"/>
							<ellipse id="Ellipse_229" class="st4" cx="479.1" cy="517.3" rx="3.5" ry="5"/>
						</g>
					</g>
				</g>
				<rect id="Rectangle_1385" x="478.5" y="499.4" class="st32" width="6.4" height="9.3"/>
				<g id="Group_7648">
					<path id="Path_6786" class="st3" d="M422.4,509.2l56.1-9.8v9.3l-56.1,16.1V509.2z"/>
					<path id="Path_6787" class="st32" d="M428.8,509.2l56.1-9.8v9.3l-56.1,16.1L428.8,509.2z"/>
					<path id="Path_6788" class="st10" d="M478.5,499.4l-56.1,9.8h6.4l56.1-9.8H478.5z"/>
					<rect id="Rectangle_1386" x="422.4" y="509.2" class="st10" width="6.4" height="15.6"/>
				</g>
				<rect id="Rectangle_1387" x="354.9" y="499.4" class="st32" width="6.4" height="9.3"/>
				<g id="Group_7649">
					<path id="Path_6789" class="st3" d="M417.4,509.2l-56.1-9.8v9.3l56.1,16.1V509.2z"/>
					<path id="Path_6790" class="st32" d="M411,509.2l-56.1-9.8v9.3l56.1,16.1V509.2z"/>
					<path id="Path_6791" class="st10" d="M361.3,499.4l56.1,9.8H411l-56.1-9.8H361.3z"/>
					<rect id="Rectangle_1388" x="411" y="509.2" class="st10" width="6.4" height="15.6"/>
				</g>
				<g id="Group_7650">
					<rect id="Rectangle_1389" x="410.3" y="442.4" class="st15" width="19.2" height="26.1"/>
					<rect id="Rectangle_1390" x="412.9" y="468.5" class="st4" width="14" height="48.3"/>
					<rect id="Rectangle_1391" x="410.3" y="490.7" class="st15" width="19.2" height="35.2"/>
				</g>
				<g id="Group_7659">
					<g id="Group_7654">
						<g id="Group_7653">
							<path id="Path_6792" class="st15" d="M472.2,550c0-3.7,1.4-6.9,3.4-8.6V540h3.4c3.8,0,6.9,4.4,6.9,9.9s-3.1,9.9-6.9,9.9h-3.4         v-1.3C473.6,556.8,472.2,553.6,472.2,550z"/>
							<g id="Group_7652">
								<g id="Group_7651">
									<ellipse id="Ellipse_230" class="st46" cx="475.6" cy="550" rx="6.9" ry="9.9"/>
									<ellipse id="Ellipse_231" class="st4" cx="475.6" cy="550" rx="3.5" ry="5"/>
								</g>
							</g>
						</g>
						<path id="Path_6793" class="st32" d="M428.8,510.3l56.1,22.4v9.3l-56.1-16.1L428.8,510.3z"/>
						<path id="Path_6794" class="st3" d="M422.4,510.3l56.1,22.4v9.3l-56.1-16.1V510.3z"/>
						<rect id="Rectangle_1392" x="478.5" y="532.7" class="st32" width="6.4" height="9.3"/>
						<path id="Path_6795" class="st10" d="M478.5,532.7l-56.1-22.4h6.4l56.1,22.4H478.5z"/>
					</g>
					<g id="Group_7658">
						<g id="Group_7657">
							<path id="Path_6796" class="st15" d="M367.6,550c0-3.7-1.4-6.9-3.4-8.6V540h-3.4c-3.8,0-6.9,4.4-6.9,9.9s3.1,9.9,6.9,9.9h3.4         v-1.3C366.2,556.8,367.6,553.6,367.6,550z"/>
							<g id="Group_7656">
								<g id="Group_7655">
									<ellipse id="Ellipse_232" class="st46" cx="364.2" cy="550" rx="6.9" ry="9.9"/>
									<ellipse id="Ellipse_233" class="st4" cx="364.2" cy="550" rx="3.5" ry="5"/>
								</g>
							</g>
						</g>
						<path id="Path_6797" class="st32" d="M411,510.3l-56.1,22.4v9.3l56.1-16.1L411,510.3z"/>
						<path id="Path_6798" class="st3" d="M417.4,510.3l-56.1,22.4v9.3l56.1-16.1V510.3z"/>
						<rect id="Rectangle_1393" x="354.9" y="532.7" class="st32" width="6.4" height="9.3"/>
						<path id="Path_6799" class="st10" d="M361.3,532.7l56.1-22.4H411l-56.1,22.4H361.3z"/>
					</g>
				</g>
			</g>
			<g id="Group_7662">
				<path id="Path_6800" class="st4" d="M343.4,440.4v-43.7h7.8v45.6h-5.9C344.2,442.4,343.4,441.5,343.4,440.4z"/>
				<g id="Group_7661">
					<path id="Path_6801" class="st44" d="M362.2,377.9c-0.3-4.1-3.7-7.4-7.8-7.4h-15.5c-4.1,0-7.6,3.2-7.8,7.4h0v0.1       c0,0.1,0,0.2,0,0.4s0,0.2,0,0.4v11.1h31.2L362.2,377.9L362.2,377.9L362.2,377.9z"/>
					<path id="Path_6802" class="st45" d="M355.4,396.7h-17.5c-3.8,0-6.9-3.1-6.9-6.9l0,0c0-4.3,3.5-7.9,7.9-7.9h15.5       c4.3,0,7.9,3.5,7.9,7.9l0,0l0,0C362.3,393.7,359.2,396.7,355.4,396.7z"/>
				</g>
			</g>
			<g id="Group_7665">
				<g id="Group_7664">
					<g id="Group_7663">
						<path id="Path_6803" class="st44" d="M508.8,377.9c-0.3-4.1-3.7-7.4-7.8-7.4h-15.5c-4.1,0-7.6,3.2-7.8,7.4h0v0.1        c0,0.1,0,0.2,0,0.4s0,0.2,0,0.4v11.1h31.2L508.8,377.9L508.8,377.9L508.8,377.9z"/>
						<path id="Path_6804" class="st45" d="M501.9,396.7h-17.5c-3.8,0-6.9-3.1-6.9-6.9l0,0l0,0c0-4.3,3.5-7.9,7.9-7.9h15.5        c4.3,0,7.9,3.5,7.9,7.9c0,0,0,0,0,0l0,0C508.8,393.7,505.7,396.7,501.9,396.7z"/>
					</g>
				</g>
				<path id="Path_6805" class="st4" d="M496.4,440.4v-43.7h-7.8v45.6h5.9C495.6,442.4,496.4,441.5,496.4,440.4z"/>
			</g>
			<path id="Path_6806" class="st7" d="M410.3,442.4v7.4l19.2,7.8v-15.2H410.3z"/>
		</g>
	</g>
</g>
</svg>