<svg id="Layer_1" data-name="Layer 1" xmlns="http://www.w3.org/2000/svg" xmlns:xlink="http://www.w3.org/1999/xlink" viewBox="0 0 500 330"><defs><style>.cls-1,.cls-13,.cls-2,.cls-22,.cls-23,.cls-25,.cls-58{opacity:0.25;}.cls-1{fill:url(#linear-gradient);}.cls-2{fill:url(#linear-gradient-2);}.cls-3{fill:#84adef;}.cls-4{fill:url(#linear-gradient-3);}.cls-5{fill:url(#linear-gradient-4);}.cls-6{fill:url(#linear-gradient-5);}.cls-7{fill:url(#linear-gradient-6);}.cls-26,.cls-27,.cls-28,.cls-29,.cls-37,.cls-44,.cls-59,.cls-60,.cls-8,.cls-9{opacity:0.5;}.cls-8{fill:url(#linear-gradient-7);}.cls-9{fill:url(#linear-gradient-8);}.cls-10{fill:url(#linear-gradient-9);}.cls-11{fill:#2c55ff;}.cls-12{fill:#f2f2f2;}.cls-14{fill:url(#linear-gradient-10);}.cls-15{fill:url(#linear-gradient-11);}.cls-16{fill:url(#linear-gradient-12);}.cls-17{fill:url(#linear-gradient-13);}.cls-18{fill:url(#linear-gradient-14);}.cls-19{fill:url(#linear-gradient-15);}.cls-20,.cls-47{fill:#ff6d38;}.cls-21,.cls-57{fill:#22b573;}.cls-22{fill:url(#linear-gradient-16);}.cls-24{fill:#3852c1;}.cls-25,.cls-37,.cls-42,.cls-48,.cls-52{fill:#fff;}.cls-26{fill:url(#linear-gradient-17);}.cls-27{fill:url(#linear-gradient-18);}.cls-28{fill:url(#linear-gradient-19);}.cls-29{fill:url(#linear-gradient-20);}.cls-30{fill:url(#linear-gradient-21);}.cls-31{fill:url(#linear-gradient-22);}.cls-32{fill:#e8633a;}.cls-33{fill:#bfd2e2;}.cls-34{fill:#e8f0f8;}.cls-35,.cls-38{fill:none;stroke:#bfd2e2;stroke-linecap:round;stroke-linejoin:round;}.cls-35{stroke-width:0.65px;}.cls-36{fill:#1e9e61;}.cls-38{stroke-width:0.8px;}.cls-39{fill:#c5d6ff;}.cls-40{fill:#d2e4f9;}.cls-41{fill:#395ed3;}.cls-43{fill:#173d7a;}.cls-44{fill:#d4ecff;}.cls-45{fill:#396caa;}.cls-46{fill:#536dfe;}.cls-47{opacity:0.74;}.cls-48{opacity:0.9;}.cls-49{fill:#a4c9ff;}.cls-50{fill:#90bdf4;}.cls-51{fill:#4864d8;}.cls-52{opacity:0.26;}.cls-52,.cls-53{isolation:isolate;}.cls-53{opacity:0.15;}.cls-54{fill:url(#linear-gradient-23);}.cls-55{fill:url(#linear-gradient-24);}.cls-56{opacity:0.15;}.cls-57{opacity:0.61;}.cls-58{fill:url(#linear-gradient-25);}.cls-59{fill:url(#linear-gradient-26);}.cls-60{fill:url(#linear-gradient-27);}.cls-61{fill:#1034fe;}.cls-62{fill:#80d6ad;}.cls-63{fill:#b4efd3;}</style><linearGradient id="linear-gradient" x1="292.15" y1="242.76" x2="491.42" y2="242.76" gradientTransform="matrix(-1, 0, 0, 1, 494.58, 0)" gradientUnits="userSpaceOnUse"><stop offset="0" stop-color="#ebf2fc"/><stop offset="1" stop-color="#84adef"/></linearGradient><linearGradient id="linear-gradient-2" x1="194.99" y1="295.4" x2="774.81" y2="295.4" gradientTransform="matrix(1, 0, 0, 1, 0, 0)" xlink:href="#linear-gradient"/><linearGradient id="linear-gradient-3" x1="40.17" y1="128.19" x2="140" y2="128.19" gradientTransform="matrix(1, 0, 0, 1, 0, 0)" xlink:href="#linear-gradient"/><linearGradient id="linear-gradient-4" x1="364.91" y1="128.19" x2="464.74" y2="128.19" gradientTransform="matrix(1, 0, 0, 1, 0, 0)" xlink:href="#linear-gradient"/><linearGradient id="linear-gradient-5" x1="259.53" y1="114.32" x2="414.82" y2="114.32" gradientTransform="matrix(1, 0, 0, 1, 0, 0)" xlink:href="#linear-gradient"/><linearGradient id="linear-gradient-6" x1="110.9" y1="80.49" x2="319.43" y2="80.49" gradientTransform="matrix(1, 0, 0, 1, 0, 0)" xlink:href="#linear-gradient"/><linearGradient id="linear-gradient-7" x1="188.13" y1="178.93" x2="249.15" y2="178.93" gradientTransform="translate(190.56 -102.19) rotate(45)" xlink:href="#linear-gradient"/><linearGradient id="linear-gradient-8" x1="210.52" y1="208.06" x2="220.38" y2="208.06" gradientTransform="matrix(1, 0, 0, 1, 0, 0)" xlink:href="#linear-gradient"/><linearGradient id="linear-gradient-9" x1="233.59" y1="206.2" x2="257.23" y2="206.2" gradientUnits="userSpaceOnUse"><stop offset="0" stop-color="#db1162"/><stop offset="1" stop-color="#ff6817"/></linearGradient><linearGradient id="linear-gradient-10" x1="228.28" y1="188.73" x2="217.46" y2="176.95" gradientUnits="userSpaceOnUse"><stop offset="0" stop-opacity="0"/><stop offset="1"/></linearGradient><linearGradient id="linear-gradient-11" x1="215.45" y1="194.15" x2="215.45" y2="181.07" xlink:href="#linear-gradient-10"/><linearGradient id="linear-gradient-12" x1="203.86" y1="164.59" x2="212.94" y2="170.69" xlink:href="#linear-gradient-10"/><linearGradient id="linear-gradient-13" x1="215.45" y1="219.68" x2="215.45" y2="235.38" xlink:href="#linear-gradient-10"/><linearGradient id="linear-gradient-14" x1="234.7" y1="194.91" x2="245.45" y2="206.33" xlink:href="#linear-gradient-10"/><linearGradient id="linear-gradient-15" x1="203.15" y1="162.85" x2="193.35" y2="156.38" xlink:href="#linear-gradient-10"/><linearGradient id="linear-gradient-16" x1="378.87" y1="25.62" x2="484.77" y2="25.62" xlink:href="#linear-gradient"/><linearGradient id="linear-gradient-17" x1="170.56" y1="38.83" x2="287.86" y2="38.83" gradientTransform="translate(114.82)" xlink:href="#linear-gradient"/><linearGradient id="linear-gradient-18" x1="228.01" y1="50.45" x2="262.15" y2="50.45" gradientTransform="translate(114.82)" xlink:href="#linear-gradient"/><linearGradient id="linear-gradient-19" x1="2778.3" y1="72.44" x2="2895.6" y2="72.44" gradientTransform="matrix(-1, 0, 0, 1, 3315.11, 0)" xlink:href="#linear-gradient"/><linearGradient id="linear-gradient-20" x1="2835.75" y1="84.06" x2="2869.89" y2="84.06" gradientTransform="matrix(-1, 0, 0, 1, 3315.11, 0)" xlink:href="#linear-gradient"/><linearGradient id="linear-gradient-21" x1="418.23" y1="47.3" x2="434.71" y2="47.3" xlink:href="#linear-gradient-9"/><linearGradient id="linear-gradient-22" x1="418.23" y1="47.34" x2="434.71" y2="47.34" xlink:href="#linear-gradient-9"/><linearGradient id="linear-gradient-23" x1="3974.04" y1="-47.72" x2="4134.71" y2="-66.54" gradientTransform="matrix(-0.9, 0.29, 0.01, 1.11, 3686.84, -867.98)" xlink:href="#linear-gradient"/><linearGradient id="linear-gradient-24" x1="4052.99" y1="-45.58" x2="4076.6" y2="-48.34" gradientTransform="matrix(-0.9, 0.29, 0.01, 1.11, 3686.84, -867.98)" xlink:href="#linear-gradient"/><linearGradient id="linear-gradient-25" x1="4493.51" y1="233.81" x2="4558.59" y2="233.81" gradientTransform="matrix(1, 0, 0, -1, -4444.58, 467.62)" xlink:href="#linear-gradient"/><linearGradient id="linear-gradient-26" x1="23.51" y1="238.36" x2="92.23" y2="238.36" gradientTransform="translate(-0.78 0.28) rotate(-0.19)" xlink:href="#linear-gradient"/><linearGradient id="linear-gradient-27" x1="23.51" y1="238.36" x2="92.23" y2="238.36" gradientTransform="translate(-0.78 0.21) rotate(-0.19)" xlink:href="#linear-gradient"/></defs><path class="cls-1" d="M202.43,273.13s-7.82-15.28-24.15-15.28c-8.06,0-9.07,3.22-9.07,3.22s-5.14-19.55-26.7-12c0,0-5.51-36.68-42.73-36.68S62.69,252,62.69,252s-15.45-1.07-24,8.2c0,0-25.53-7.12-35.48,12.36Z"/><ellipse class="cls-2" cx="365.37" cy="295.4" rx="133.01" ry="26.86"/><path class="cls-3" d="M160.3,152.31H60.47a49.91,49.91,0,0,1,49.91-49.92,49.07,49.07,0,0,1,8.09.66A49.92,49.92,0,0,1,160.3,152.31Z"/><path class="cls-3" d="M485,152.31H385.2a49.92,49.92,0,1,1,99.83,0Z"/><path class="cls-3" d="M435.12,152.31H279.83a77.65,77.65,0,1,1,155.29,0Z"/><path class="cls-3" d="M339.73,111.27a103.92,103.92,0,0,1-8.39,41H139.58a103.92,103.92,0,0,1-8.39-41q0-4.15.32-8.22a104.27,104.27,0,0,1,208.22,8.22Z"/><path class="cls-4" d="M140,153.14H40.17a49.92,49.92,0,1,1,99.83,0Z"/><path class="cls-5" d="M464.74,153.14H364.91a49.92,49.92,0,0,1,99.83,0Z"/><path class="cls-6" d="M414.82,153.14H259.53a77.65,77.65,0,0,1,155.29,0Z"/><path class="cls-7" d="M319.43,112.1a103.85,103.85,0,0,1-8.39,41H119.29a103.85,103.85,0,0,1-8.39-41q0-4.14.31-8.22a104.27,104.27,0,0,1,208.22,8.22Z"/><rect class="cls-8" x="213.71" y="140.71" width="9.86" height="76.43" transform="translate(-62.48 207.01) rotate(-45)"/><rect class="cls-9" x="210.52" y="175.67" width="9.86" height="64.78"/><circle class="cls-10" cx="245.41" cy="206.2" r="11.82"/><circle class="cls-11" cx="214.74" cy="175.53" r="11.82"/><circle class="cls-11" cx="215.11" cy="236.5" r="11.82"/><path class="cls-11" d="M277.38,123.92c.39-.91.16-1.24-.64-1.65-4.27-2.17-8.5-4.42-12.79-6.56a1.2,1.2,0,0,1-.75-1.57,47.46,47.46,0,0,0,.44-15.86,1.51,1.51,0,0,1,1-1.86c4.38-2.18,8.71-4.45,13.09-6.64.79-.4,1-.73.64-1.63q-3.22-7.64-6.31-15.32c-.33-.81-.62-1-1.48-.7-4.55,1.5-9.14,2.9-13.69,4.38-.8.26-1.27.27-1.8-.52a47.51,47.51,0,0,0-11-11.6,1.32,1.32,0,0,1-.5-1.8c1.53-4.64,3-9.31,4.52-14,.31-.94.13-1.32-.79-1.69q-7.55-3.08-15-6.27c-.87-.37-1.31-.33-1.79.6-2.08,4.16-4.29,8.24-6.35,12.41a1.59,1.59,0,0,1-2.1,1,45.89,45.89,0,0,0-15.42-.39,1.61,1.61,0,0,1-1.95-1.08c-2.2-4.37-4.48-8.69-6.66-13.07-.41-.82-.73-1-1.59-.61-5,2.13-10.1,4.24-15.19,6.24-1.08.43-1.06.88-.76,1.8,1.49,4.55,2.91,9.13,4.38,13.69.2.62.23,1-.41,1.41A49.18,49.18,0,0,0,172.52,74a1.08,1.08,0,0,1-1.44.44c-4.69-1.56-9.4-3-14.07-4.62-1-.34-1.42-.18-1.82.82-2,5-4.07,10-6.22,14.9-.47,1.09-.14,1.47.75,1.93,4.1,2.09,8.16,4.24,12.26,6.31a1.53,1.53,0,0,1,1,2,47.41,47.41,0,0,0-.41,15.72,1.34,1.34,0,0,1-.86,1.66c-4.33,2.16-8.62,4.42-12.95,6.58-1,.5-1.4.86-.85,2.1,2.14,4.93,4.16,9.92,6.15,14.92.39,1,.77,1,1.68.74,4.51-1.49,9.05-2.86,13.55-4.35a1.33,1.33,0,0,1,1.86.6,46.89,46.89,0,0,0,10.94,11.5,1.4,1.4,0,0,1,.54,1.91c-1.57,4.67-3,9.38-4.6,14.07-.27.81-.14,1.19.69,1.51,2.57,1,5.11,2.11,7.66,3.17s4.94,2,7.37,3.09c1,.46,1.46.33,2-.66,2.14-4.23,4.36-8.42,6.51-12.65a1.22,1.22,0,0,1,1.58-.77,47.19,47.19,0,0,0,15.86.46,1.51,1.51,0,0,1,1.85,1c2.18,4.33,4.45,8.61,6.58,13,.53,1.08,1,1.1,2,.68q7.44-3.13,14.92-6.14c.92-.36,1.12-.7.8-1.67-1.49-4.5-2.87-9-4.35-13.55-.28-.85-.26-1.31.56-1.86a47.63,47.63,0,0,0,11.51-10.93,1.34,1.34,0,0,1,1.77-.59c4.72,1.58,9.48,3.06,14.23,4.6.76.25,1.14.22,1.49-.66Q274.12,131.54,277.38,123.92ZM195,148.26A47,47,0,1,1,256.5,123,47,47,0,0,1,195,148.26Z"/><circle class="cls-12" cx="213.12" cy="104.87" r="44.11"/><g class="cls-13"><path class="cls-14" d="M232.27,185.58,225,192.21l-4.57-4.58v-1.72a11.93,11.93,0,0,0,2.71-2,11.66,11.66,0,0,0,2.86-4.62Z"/><path class="cls-15" d="M220.38,185.91v8.46h-9.85v-7.8a11.78,11.78,0,0,0,8.68-.11A10.37,10.37,0,0,0,220.38,185.91Z"/><path class="cls-16" d="M211,164.3a11.84,11.84,0,0,0-4.62,2.86,12,12,0,0,0-2.58,3.88l-2.86-2.86,5.71-8.23Z"/><path class="cls-17" d="M220.38,219.21v6.69a11.85,11.85,0,0,0-9.85-.31v-6.37Z"/><path class="cls-18" d="M241.67,195a11.84,11.84,0,0,0-7.21,6.73l-4.3-4.29,7.86-6.08Z"/><polygon class="cls-19" points="205.82 159.13 200.54 167.8 197.53 164.79 202.28 155.6 205.82 159.13"/></g><path class="cls-20" d="M257,100.69a1.5,1.5,0,0,0-1.15-.19,44.56,44.56,0,0,1-14.84-.42,1.13,1.13,0,0,0-1.47.71c-2,4-4.1,7.88-6.09,11.84-.47.92-.92,1-1.84.62-2.27-1-4.6-1.94-6.9-2.9s-4.75-2-7.16-3c-.78-.31-.9-.65-.65-1.42,1.45-4.38,2.83-8.79,4.31-13.16a1.32,1.32,0,0,0-.52-1.79,44.11,44.11,0,0,1-10.23-10.75,1.23,1.23,0,0,0-1.73-.56c-4.22,1.38-8.47,2.67-12.68,4.06-.86.28-1.21.2-1.58-.69-1.86-4.68-3.75-9.34-5.76-14a2.5,2.5,0,0,1-.2-.63,44.24,44.24,0,0,1,18-7.08,44,44,0,0,0,49.94,35.32C256.69,98,256.87,99.36,257,100.69Z"/><path class="cls-21" d="M230.23,136.66c-3.55,1.77-7.06,3.61-10.62,5.39a1.22,1.22,0,0,0-.84,1.51,38.48,38.48,0,0,1,.37,4.9c-1.07.15-2.14.25-3.22.32a38.18,38.18,0,0,0-46.17-37.19,44.65,44.65,0,0,1-.51-7.85c.56,1.08,1.1,2.15,1.65,3.23a1.29,1.29,0,0,0,1.58.87,37.92,37.92,0,0,1,12.53.32,1.29,1.29,0,0,0,1.7-.81c1.67-3.38,3.47-6.7,5.16-10.07.39-.76.74-.79,1.45-.49,4.06,1.72,8.13,3.43,12.21,5.09.74.3.89.61.64,1.37-1.25,3.77-2.43,7.56-3.67,11.33a1.06,1.06,0,0,0,.4,1.45,38.79,38.79,0,0,1,9,9.43c.43.64.81.63,1.46.42,3.7-1.2,7.42-2.34,11.12-3.55.7-.23.93-.09,1.2.56q2.51,6.24,5.13,12.44C231.07,136.06,230.88,136.33,230.23,136.66Z"/><path class="cls-22" d="M115.72,41.76s-4.16-8.13-12.84-8.13c-4.28,0-4.82,1.72-4.82,1.72S95.33,25,83.87,29c0,0-2.93-19.49-22.71-19.49S41.45,30.55,41.45,30.55,33.24,30,28.67,34.9c0,0-13.57-3.78-18.86,6.57Z"/><path class="cls-11" d="M106.28,77.7l0,17.34a1.61,1.61,0,0,1-1.62,1.62l-18.09,0A1.62,1.62,0,0,1,84.94,95l0-22.77a1.62,1.62,0,0,1,1.6-1.62l12.65,0Z"/><path class="cls-23" d="M100.21,78.35A1.19,1.19,0,0,1,99,77.15l.22-6.52,7,7.07v.67Z"/><path class="cls-24" d="M100.42,77.69a1.2,1.2,0,0,1-1.2-1.2l0-5.86,7,7.07Z"/><polygon class="cls-25" points="97.97 80.13 92.93 80.06 90.35 84.38 92.8 88.78 97.84 88.85 100.42 84.53 97.97 80.13"/><path class="cls-26" d="M400.63,41.2l-25.21-.06a2.33,2.33,0,0,1-2.33-2.34h0a2.35,2.35,0,0,1,2.35-2.34l25.2.06A2.35,2.35,0,0,1,403,38.87h0A2.34,2.34,0,0,1,400.63,41.2Z"/><path class="cls-21" d="M367.44,41.2l-22.28-.06a2.33,2.33,0,0,1-2.33-2.34h0a2.35,2.35,0,0,1,2.35-2.34l22.27.06a2.34,2.34,0,0,1,2.33,2.35h0A2.33,2.33,0,0,1,367.44,41.2Z"/><path class="cls-20" d="M374.62,31.21l-29.46-.06a2.33,2.33,0,0,1-2.33-2.34h0a2.35,2.35,0,0,1,2.35-2.34l29.46.06A2.34,2.34,0,0,1,377,28.88h0A2.33,2.33,0,0,1,374.62,31.21Z"/><rect class="cls-11" x="379.83" y="26.5" width="17.17" height="4.68" rx="2.34" transform="translate(0.1 -1.28) rotate(0.19)"/><path class="cls-27" d="M374.62,52.82l-29.46-.06a2.33,2.33,0,0,1-2.33-2.34h0a2.35,2.35,0,0,1,2.35-2.34l29.46.06A2.34,2.34,0,0,1,377,50.49h0A2.33,2.33,0,0,1,374.62,52.82Z"/><rect class="cls-11" x="379.83" y="48.11" width="17.17" height="4.68" rx="2.34" transform="translate(0.17 -1.28) rotate(0.19)"/><path class="cls-28" d="M421.56,74.81l25.21-.06a2.35,2.35,0,0,0,2.33-2.35h0a2.35,2.35,0,0,0-2.35-2.33l-25.2.06a2.34,2.34,0,0,0-2.34,2.35h0A2.35,2.35,0,0,0,421.56,74.81Z"/><path class="cls-21" d="M454.75,74.81,477,74.75a2.35,2.35,0,0,0,2.34-2.35h0A2.35,2.35,0,0,0,477,70.07l-22.27.06a2.33,2.33,0,0,0-2.33,2.35h0A2.33,2.33,0,0,0,454.75,74.81Z"/><path class="cls-20" d="M447.57,64.82,477,64.76a2.35,2.35,0,0,0,2.34-2.35h0A2.34,2.34,0,0,0,477,60.08l-29.46.06a2.33,2.33,0,0,0-2.33,2.35h0A2.34,2.34,0,0,0,447.57,64.82Z"/><rect class="cls-11" x="425.18" y="60.11" width="17.17" height="4.68" rx="2.34" transform="translate(867.74 123.47) rotate(179.81)"/><path class="cls-29" d="M447.57,86.43,477,86.37A2.35,2.35,0,0,0,479.36,84h0A2.35,2.35,0,0,0,477,81.69l-29.46.06a2.34,2.34,0,0,0-2.33,2.35h0A2.34,2.34,0,0,0,447.57,86.43Z"/><rect class="cls-11" x="425.18" y="81.72" width="17.17" height="4.68" rx="2.34" transform="translate(867.81 166.69) rotate(179.81)"/><polygon class="cls-30" points="412.41 58.19 420.93 47.18 412.71 36.41 428.51 47.3 412.41 58.19"/><polygon class="cls-31" points="425.06 58.23 433.58 47.22 425.37 36.45 440.83 47.34 425.06 58.23"/><path class="cls-11" d="M334.48,13.07l0,16.38A1.53,1.53,0,0,1,332.9,31l-17.09,0a1.52,1.52,0,0,1-1.5-1.53l.05-21.52a1.51,1.51,0,0,1,1.51-1.53l11.95,0Z"/><path class="cls-23" d="M328.74,13.68a1.14,1.14,0,0,1-1.13-1.13l.21-6.17,6.66,6.69v.63Z"/><path class="cls-24" d="M328.94,13.06a1.13,1.13,0,0,1-1.13-1.14V6.38l6.66,6.69Z"/><polygon class="cls-25" points="326.62 15.36 321.86 15.29 319.42 19.38 321.74 23.53 326.5 23.61 328.94 19.52 326.62 15.36"/><path class="cls-11" d="M412.71,65.28l0,10.67a1,1,0,0,1-1,1l-11.13,0a1,1,0,0,1-1-1l0-14a1,1,0,0,1,1-1l7.78,0Z"/><path class="cls-23" d="M409,65.68a.74.74,0,0,1-.74-.73l.14-4,4.33,4.35v.41Z"/><path class="cls-24" d="M409.11,65.28a.74.74,0,0,1-.74-.74V60.93l4.33,4.35Z"/><polygon class="cls-25" points="407.6 66.78 404.5 66.73 402.91 69.39 404.42 72.1 407.52 72.14 409.11 69.48 407.6 66.78"/><path class="cls-20" d="M342.25,193.61l-5.83,13.89a1.41,1.41,0,0,1-1.85.75l-14.49-6.08a1.4,1.4,0,0,1-.73-1.84L327,182.08a1.39,1.39,0,0,1,1.82-.76L339,185.57Z"/><path class="cls-23" d="M337.17,192.1a1,1,0,0,1-.56-1.36l2.36-5.17,3.28,8-.22.53Z"/><path class="cls-32" d="M337.55,191.63a1,1,0,0,1-.56-1.36l2-4.7,3.28,8Z"/><path class="cls-33" d="M353.45,175.67c.45-1.08-.56-2.53-2.24-3.24s-3.42-.41-3.88.67c.46-1.08-2.24-3.23-6-4.82s-7.2-2-7.65-.92c.45-1.09-.56-2.53-2.24-3.24s-3.42-.41-3.88.67a14.05,14.05,0,0,1,25.91,10.88Z"/><path class="cls-34" d="M347.33,173.1c.46-1.08-2.24-3.23-6-4.82s-7.2-2-7.65-.92c3-7.18,8.49-11.67,12.27-10.08S350.34,165.93,347.33,173.1Z"/><polyline class="cls-35" points="353.45 175.67 334.79 183.82 347.33 173.1 334.79 183.82 333.66 167.36 334.79 183.82 327.54 164.79"/><circle class="cls-25" cx="331.44" cy="195.19" r="4.48"/><path class="cls-21" d="M424.05,203.49l7.57,16.72a1.71,1.71,0,0,1-.86,2.28l-17.45,7.9a1.7,1.7,0,0,1-2.24-.87l-9.95-22a1.7,1.7,0,0,1,.82-2.26l12.21-5.53Z"/><path class="cls-23" d="M418.48,206.78a1.27,1.27,0,0,1-1.68-.63l-2.65-6.39,9.9,3.73.29.64Z"/><path class="cls-36" d="M418.39,206.05a1.27,1.27,0,0,1-1.68-.63l-2.56-5.66,9.9,3.73Z"/><rect class="cls-37" x="410.8" y="214.2" width="16.05" height="3.31" rx="1.65" transform="translate(-51.79 192.94) rotate(-24.48)"/><rect class="cls-37" x="408.35" y="210.05" width="12.14" height="3.31" rx="1.65" transform="translate(-50.47 190.75) rotate(-24.48)"/><path class="cls-33" d="M417.3,178.62c-.59-1.31-2.72-1.6-4.75-.68s-3.21,2.71-2.61,4c-.6-1.3-4.75-.68-9.3,1.38s-7.76,4.77-7.17,6.08c-.59-1.31-2.72-1.6-4.75-.68s-3.2,2.71-2.61,4a17.12,17.12,0,1,1,31.19-14.12Z"/><path class="cls-34" d="M409.94,182c-.6-1.3-4.75-.68-9.3,1.38s-7.76,4.77-7.17,6.08c-3.91-8.64-3.38-17.26,1.17-19.33S406,173.31,409.94,182Z"/><polyline class="cls-38" points="417.3 178.62 409.11 202.04 409.94 181.95 409.11 202.04 393.47 189.41 409.11 202.04 386.11 192.74"/><polygon class="cls-39" points="276.7 293.25 337.88 309.3 337.88 253.07 276.7 237.02 276.7 293.25"/><polygon class="cls-3" points="408.76 290.8 337.88 309.3 337.88 253.07 408.76 234.57 408.76 290.8"/><polygon class="cls-40" points="408.76 234.57 337.88 253.07 276.7 237.02 347.57 218.52 408.76 234.57"/><polygon class="cls-11" points="281.2 254.48 333.38 268.17 333.38 256.01 281.2 242.33 281.2 254.48"/><polygon class="cls-41" points="281.2 242.33 281.2 254.48 333.38 268.17 333.38 267.22 281.95 253.74 281.95 242.52 281.2 242.33"/><path class="cls-42" d="M294.21,253.41,285.49,251a2.06,2.06,0,0,1-1.23-2h0c0-.91.55-1.5,1.23-1.32l8.72,2.37a2.08,2.08,0,0,1,1.23,2h0C295.44,253,294.89,253.6,294.21,253.41Z"/><path class="cls-21" d="M293.43,252.22l-7.33-2a.82.82,0,0,1-.49-.79h0c0-.36.22-.59.49-.52l7.33,2a.83.83,0,0,1,.49.79h0C293.92,252.06,293.7,252.3,293.43,252.22Z"/><ellipse class="cls-43" cx="300.2" cy="253.39" rx="1.33" ry="1.77" transform="translate(-81.7 161.33) rotate(-26.61)"/><path class="cls-43" d="M306.67,255.15c0,.91-.64,1.48-1.43,1.26a2.17,2.17,0,0,1-1.43-2c0-.91.64-1.47,1.43-1.26A2.18,2.18,0,0,1,306.67,255.15Z"/><path class="cls-44" d="M311.71,256.52c0,.91-.64,1.47-1.43,1.26a2.17,2.17,0,0,1-1.43-2c0-.91.64-1.47,1.43-1.26A2.18,2.18,0,0,1,311.71,256.52Z"/><path class="cls-43" d="M316.75,257.89c0,.91-.64,1.47-1.43,1.26a2.17,2.17,0,0,1-1.43-2c0-.91.64-1.47,1.43-1.26A2.18,2.18,0,0,1,316.75,257.89Z"/><path class="cls-43" d="M328.91,263.24l-2.93-.8a1.33,1.33,0,0,1-.8-1.27v-3.11c0-.58.36-1,.8-.84l2.93.8a1.32,1.32,0,0,1,.79,1.27v3.11C329.7,263,329.35,263.36,328.91,263.24Z"/><polygon class="cls-11" points="281.2 270.98 333.38 284.67 333.38 272.51 281.2 258.82 281.2 270.98"/><polygon class="cls-41" points="281.2 258.82 281.2 270.98 333.38 284.67 333.38 283.72 281.95 270.23 281.95 259.02 281.2 258.82"/><path class="cls-42" d="M294.21,269.91l-8.72-2.37a2.08,2.08,0,0,1-1.23-2h0c0-.91.55-1.5,1.23-1.31l8.72,2.37a2.06,2.06,0,0,1,1.23,2h0C295.44,269.51,294.89,270.09,294.21,269.91Z"/><path class="cls-20" d="M293.43,268.72l-7.33-2a.83.83,0,0,1-.49-.79h0c0-.36.22-.6.49-.52l7.33,2a.82.82,0,0,1,.49.79h0C293.92,268.56,293.7,268.79,293.43,268.72Z"/><ellipse class="cls-43" cx="300.2" cy="269.89" rx="1.33" ry="1.77" transform="translate(-89.1 163.08) rotate(-26.61)"/><path class="cls-43" d="M306.67,271.65c0,.91-.64,1.47-1.43,1.26a2.18,2.18,0,0,1-1.43-2c0-.91.64-1.47,1.43-1.26A2.17,2.17,0,0,1,306.67,271.65Z"/><path class="cls-44" d="M311.71,273c0,.91-.64,1.47-1.43,1.26a2.18,2.18,0,0,1-1.43-2c0-.91.64-1.47,1.43-1.26A2.17,2.17,0,0,1,311.71,273Z"/><path class="cls-43" d="M316.75,274.39c0,.91-.64,1.47-1.43,1.26a2.18,2.18,0,0,1-1.43-2c0-.91.64-1.47,1.43-1.26A2.17,2.17,0,0,1,316.75,274.39Z"/><path class="cls-43" d="M328.91,279.74l-2.93-.8a1.33,1.33,0,0,1-.8-1.27v-3.11c0-.58.36-1,.8-.84l2.93.8a1.32,1.32,0,0,1,.79,1.27v3.1C329.7,279.48,329.35,279.86,328.91,279.74Z"/><polygon class="cls-11" points="281.2 287.48 333.38 301.17 333.38 289.01 281.2 275.32 281.2 287.48"/><polygon class="cls-41" points="281.2 275.32 281.2 287.48 333.38 301.17 333.38 300.21 281.95 286.73 281.95 275.51 281.2 275.32"/><path class="cls-42" d="M294.21,286.4,285.49,284a2.08,2.08,0,0,1-1.23-2h0c0-.91.55-1.5,1.23-1.31l8.72,2.37a2.05,2.05,0,0,1,1.23,2h0C295.44,286,294.89,286.59,294.21,286.4Z"/><path class="cls-43" d="M293.43,285.22l-7.33-2a.83.83,0,0,1-.49-.79h0c0-.36.22-.6.49-.52l7.33,2a.81.81,0,0,1,.49.79h0C293.92,285.06,293.7,285.29,293.43,285.22Z"/><ellipse class="cls-43" cx="300.2" cy="286.39" rx="1.33" ry="1.77" transform="translate(-96.49 164.83) rotate(-26.61)"/><path class="cls-43" d="M306.67,288.14c0,.92-.64,1.48-1.43,1.27a2.18,2.18,0,0,1-1.43-2c0-.91.64-1.48,1.43-1.26A2.15,2.15,0,0,1,306.67,288.14Z"/><path class="cls-44" d="M311.71,289.51c0,.92-.64,1.48-1.43,1.26a2.15,2.15,0,0,1-1.43-2c0-.91.64-1.48,1.43-1.26A2.15,2.15,0,0,1,311.71,289.51Z"/><path class="cls-43" d="M316.75,290.88c0,.92-.64,1.48-1.43,1.26a2.15,2.15,0,0,1-1.43-2c0-.91.64-1.48,1.43-1.26A2.15,2.15,0,0,1,316.75,290.88Z"/><path class="cls-43" d="M328.91,296.23l-2.93-.79a1.33,1.33,0,0,1-.8-1.28v-3.1c0-.59.36-1,.8-.84l2.93.79a1.32,1.32,0,0,1,.79,1.28v3.1C329.7,296,329.35,296.35,328.91,296.23Z"/><polygon class="cls-43" points="389.46 258.41 365.28 264.72 365.28 252.59 389.46 246.28 389.46 258.41"/><path class="cls-45" d="M373.44,258.24l2.07-.55a.78.78,0,0,0,.46-.78l-.13-2.12c0-.36-.26-.58-.54-.51l-2.07.56a.75.75,0,0,0-.46.77l.13,2.12C372.92,258.09,373.16,258.32,373.44,258.24Z"/><path class="cls-42" d="M380.36,256.38l2.07-.55a.76.76,0,0,0,.46-.78l-.13-2.12c0-.35-.26-.58-.54-.51l-2.06.56a.75.75,0,0,0-.47.78l.13,2.12C379.84,256.23,380.08,256.46,380.36,256.38Z"/><polygon class="cls-41" points="365.28 263.93 365.28 264.71 389.46 258.4 389.46 246.28 388.83 246.44 388.83 257.78 365.28 263.93"/><polygon class="cls-43" points="389.46 274.18 365.28 280.49 365.28 268.36 389.46 262.05 389.46 274.18"/><path class="cls-45" d="M373.44,274l2.07-.55a.78.78,0,0,0,.46-.78l-.13-2.12c0-.36-.26-.58-.54-.51l-2.07.56a.75.75,0,0,0-.46.77l.13,2.12C372.92,273.86,373.16,274.08,373.44,274Z"/><path class="cls-42" d="M380.36,272.15l2.07-.55a.77.77,0,0,0,.46-.78l-.13-2.12c0-.35-.26-.58-.54-.51l-2.06.56a.75.75,0,0,0-.47.78l.13,2.12C379.84,272,380.08,272.23,380.36,272.15Z"/><polygon class="cls-41" points="365.28 279.7 365.28 280.48 389.46 274.17 389.46 262.06 388.83 262.21 388.83 273.55 365.28 279.7"/><polygon class="cls-43" points="389.46 289.94 365.28 296.26 365.28 284.13 389.46 277.82 389.46 289.94"/><path class="cls-45" d="M373.44,289.78l2.07-.55a.78.78,0,0,0,.46-.78l-.13-2.12c0-.36-.26-.58-.54-.51l-2.07.56a.75.75,0,0,0-.46.77l.13,2.12C372.92,289.63,373.16,289.85,373.44,289.78Z"/><path class="cls-42" d="M380.36,287.92l2.07-.55a.77.77,0,0,0,.46-.78l-.13-2.12c0-.35-.26-.58-.54-.51l-2.06.56a.75.75,0,0,0-.47.78l.13,2.12C379.84,287.77,380.08,288,380.36,287.92Z"/><polygon class="cls-41" points="365.28 295.47 365.28 296.25 389.46 289.94 389.46 277.82 388.83 277.98 388.83 289.32 365.28 295.47"/><polygon class="cls-39" points="460.97 284.84 430.92 296.25 430.84 261.47 460.88 250.06 460.97 284.84"/><polygon class="cls-40" points="459.04 283.51 434.12 292.99 434.05 262.69 458.97 253.22 459.04 283.51"/><polygon class="cls-3" points="458.96 253.22 459.04 283.51 434.12 292.98 434.11 292.02 458.21 282.86 458.14 253.53 458.96 253.22"/><polygon class="cls-3" points="414.46 289.82 430.92 296.25 430.84 261.47 414.38 255.03 414.46 289.82"/><polygon class="cls-40" points="414.38 255.03 430.84 261.47 460.88 250.06 444.42 243.62 414.38 255.03"/><ellipse class="cls-21" cx="443.36" cy="250.28" rx="1.03" ry="2.95" transform="translate(123.62 646.48) rotate(-80.54)"/><ellipse class="cls-21" cx="438.56" cy="252.02" rx="1.03" ry="2.95" transform="translate(117.88 643.2) rotate(-80.54)"/><ellipse class="cls-46" cx="433.76" cy="253.77" rx="1.03" ry="2.95" transform="translate(112.15 639.92) rotate(-80.54)"/><path class="cls-21" d="M453.62,262.45l2.84-1.08a.25.25,0,0,0,.16-.19l-.09-2.56c0-.07-.1-.11-.19-.07l-2.87,1.1c-.08,0-.13.08-.12.13l.09,2.6C453.44,262.45,453.53,262.48,453.62,262.45Z"/><path class="cls-47" d="M449.4,264l2.83-1.08a.22.22,0,0,0,.16-.19l-.09-2.56c0-.07-.09-.1-.19-.07l-2.87,1.1a.18.18,0,0,0-.12.14l.09,2.59C449.21,264,449.3,264.08,449.4,264Z"/><path class="cls-48" d="M436.62,267.13l11.35-4.3c.21-.09.37-.26.36-.42h0c0-.22-.28-.31-.56-.21l-11.35,4.31a.5.5,0,0,0-.36.42h0C436.07,267.15,436.34,267.24,436.62,267.13Z"/><path class="cls-48" d="M441,266.81l7-2.64a.53.53,0,0,0,.37-.43h0c0-.21-.28-.3-.56-.2l-7,2.65a.5.5,0,0,0-.36.42h0C440.44,266.82,440.71,266.92,441,266.81Z"/><path class="cls-48" d="M436.5,268.47l2.74-1c.21-.09.37-.26.36-.42h0c0-.22-.28-.31-.56-.21l-2.74,1a.49.49,0,0,0-.36.42h0C436,268.48,436.22,268.58,436.5,268.47Z"/><path class="cls-47" d="M453.64,268.13l2.83-1.08a.22.22,0,0,0,.16-.19l-.09-2.56c0-.07-.09-.1-.19-.07l-2.87,1.1a.17.17,0,0,0-.12.14l.09,2.59C453.45,268.13,453.54,268.17,453.64,268.13Z"/><path class="cls-49" d="M449.41,269.72l2.83-1.08c.1,0,.17-.11.16-.18l-.09-2.57c0-.07-.09-.1-.18-.06l-2.88,1.09a.18.18,0,0,0-.12.14l.1,2.6C449.23,269.73,449.32,269.76,449.41,269.72Z"/><path class="cls-48" d="M436.63,272.82,448,268.51a.49.49,0,0,0,.36-.42h0c0-.21-.27-.31-.56-.2l-11.34,4.31a.5.5,0,0,0-.37.42h0C436.08,272.83,436.35,272.93,436.63,272.82Z"/><path class="cls-48" d="M441,272.49l7-2.64a.5.5,0,0,0,.36-.42h0c0-.21-.28-.31-.56-.2l-7,2.64a.51.51,0,0,0-.37.42h0C440.45,272.51,440.72,272.6,441,272.49Z"/><path class="cls-48" d="M436.51,274.16l2.74-1a.49.49,0,0,0,.36-.42h0c0-.21-.27-.31-.56-.2l-2.73,1a.53.53,0,0,0-.37.43h0C436,274.17,436.23,274.26,436.51,274.16Z"/><path class="cls-21" d="M453.65,273.81l2.84-1.08a.22.22,0,0,0,.16-.18l-.1-2.57c0-.07-.09-.1-.18-.06L453.49,271a.18.18,0,0,0-.12.14l.1,2.6C453.47,273.82,453.56,273.85,453.65,273.81Z"/><path class="cls-47" d="M449.42,275.41l2.84-1.08a.25.25,0,0,0,.16-.19l-.09-2.56c0-.07-.09-.1-.19-.07l-2.87,1.1c-.07,0-.13.08-.12.14l.09,2.59C449.24,275.41,449.33,275.44,449.42,275.41Z"/><path class="cls-48" d="M436.65,278.5,448,274.19a.51.51,0,0,0,.37-.42h0c0-.21-.28-.31-.56-.2l-11.35,4.31a.49.49,0,0,0-.36.42h0C436.09,278.51,436.36,278.61,436.65,278.5Z"/><path class="cls-48" d="M441,278.18l7-2.65a.51.51,0,0,0,.37-.42h0c0-.21-.28-.31-.57-.2l-7,2.65a.49.49,0,0,0-.36.42h0C440.46,278.19,440.73,278.29,441,278.18Z"/><path class="cls-48" d="M436.53,279.84l2.73-1a.51.51,0,0,0,.37-.42h0c0-.21-.28-.31-.56-.2l-2.74,1a.49.49,0,0,0-.36.42h0C436,279.85,436.24,280,436.53,279.84Z"/><path class="cls-47" d="M453.67,279.5l2.83-1.08a.23.23,0,0,0,.16-.19l-.09-2.56c0-.07-.09-.11-.19-.07l-2.87,1.1a.16.16,0,0,0-.12.14l.09,2.59C453.48,279.5,453.57,279.53,453.67,279.5Z"/><path class="cls-49" d="M449.44,281.09l2.83-1.08c.1,0,.17-.11.16-.18l-.09-2.57c0-.07-.09-.1-.18-.07l-2.88,1.1a.18.18,0,0,0-.12.14l.09,2.6C449.26,281.1,449.35,281.13,449.44,281.09Z"/><path class="cls-48" d="M436.66,284.18l11.35-4.3a.49.49,0,0,0,.36-.42h0c0-.22-.28-.31-.56-.2l-11.35,4.3a.5.5,0,0,0-.36.42h0C436.11,284.2,436.38,284.29,436.66,284.18Z"/><path class="cls-48" d="M441,283.86l7-2.64c.21-.09.37-.26.36-.43h0c0-.21-.28-.3-.56-.2l-7,2.65a.52.52,0,0,0-.36.42h0C440.48,283.87,440.75,284,441,283.86Z"/><path class="cls-48" d="M436.54,285.52l2.74-1a.49.49,0,0,0,.36-.42h0c0-.22-.27-.31-.56-.2l-2.74,1a.5.5,0,0,0-.36.42h0C436,285.53,436.26,285.63,436.54,285.52Z"/><polygon class="cls-43" points="417.47 263.87 427.29 267.73 427.28 263.39 417.46 259.54 417.47 263.87"/><path class="cls-45" d="M424,264.87l-.84-.33a.36.36,0,0,1-.19-.31l.05-.75a.16.16,0,0,1,.22-.15l.84.34a.32.32,0,0,1,.19.31l-.05.75A.15.15,0,0,1,424,264.87Z"/><path class="cls-42" d="M421.16,263.75l-.84-.34a.34.34,0,0,1-.19-.3l.05-.75a.16.16,0,0,1,.22-.15l.84.34a.32.32,0,0,1,.19.3l-.05.75A.15.15,0,0,1,421.16,263.75Z"/><polygon class="cls-41" points="427.29 267.44 427.29 267.73 417.47 263.87 417.46 259.54 417.72 259.63 417.73 263.69 427.29 267.44"/><polygon class="cls-43" points="417.49 271.26 427.31 275.12 427.29 270.79 417.48 266.93 417.49 271.26"/><path class="cls-45" d="M424,272.27l-.84-.34a.32.32,0,0,1-.19-.31l.05-.75a.15.15,0,0,1,.22-.14l.84.34a.32.32,0,0,1,.19.3l-.05.75A.16.16,0,0,1,424,272.27Z"/><path class="cls-42" d="M421.18,271.15l-.84-.34a.34.34,0,0,1-.19-.31l.05-.75a.15.15,0,0,1,.22-.14l.84.33a.34.34,0,0,1,.19.31l-.05.75A.16.16,0,0,1,421.18,271.15Z"/><polygon class="cls-41" points="427.3 274.84 427.31 275.12 417.49 271.26 417.48 266.93 417.73 267.03 417.74 271.08 427.3 274.84"/><polygon class="cls-43" points="417.51 278.66 427.32 282.52 427.31 278.19 417.5 274.33 417.51 278.66"/><path class="cls-45" d="M424,279.66l-.84-.33A.33.33,0,0,1,423,279l0-.75a.15.15,0,0,1,.22-.14l.84.33a.35.35,0,0,1,.19.31l0,.75A.15.15,0,0,1,424,279.66Z"/><path class="cls-42" d="M421.2,278.54l-.84-.33a.34.34,0,0,1-.19-.31l.05-.75a.16.16,0,0,1,.22-.15l.84.34a.32.32,0,0,1,.19.31l-.05.75A.15.15,0,0,1,421.2,278.54Z"/><polygon class="cls-41" points="427.32 282.24 427.32 282.52 417.51 278.66 417.5 274.33 417.75 274.43 417.76 278.48 427.32 282.24"/><polygon class="cls-43" points="417.53 286.06 427.34 289.92 427.33 285.58 417.52 281.73 417.53 286.06"/><path class="cls-45" d="M424,287.06l-.84-.33a.33.33,0,0,1-.19-.31l.05-.75a.15.15,0,0,1,.22-.15l.84.34a.32.32,0,0,1,.18.31l0,.75A.15.15,0,0,1,424,287.06Z"/><path class="cls-42" d="M421.22,285.94l-.84-.34a.32.32,0,0,1-.19-.3l.05-.75a.16.16,0,0,1,.22-.15l.84.34a.34.34,0,0,1,.19.3l-.05.75A.16.16,0,0,1,421.22,285.94Z"/><polygon class="cls-41" points="427.34 289.63 427.34 289.92 417.53 286.06 417.52 281.73 417.77 281.82 417.78 285.87 427.34 289.63"/><g id="_3" data-name=" 3"><g id="_16" data-name=" 16"><path class="cls-3" d="M426.07,304.56v2.77c0,2-2.58,4-7.78,5.53-10.32,3-27,3-37.24,0-5.1-1.51-7.64-3.47-7.66-5.45v-2.76Z"/><path class="cls-40" d="M381.12,299.16c10.33-3,27-3,37.25,0s10.2,7.95-.12,11-27,3-37.24,0S370.85,302.2,381.12,299.16Z"/><path class="cls-50" d="M384,299.41c8.72-2.56,22.81-2.56,31.48,0s8.62,6.71-.11,9.29-22.8,2.55-31.47,0S375.33,302,384,299.41Z"/><path class="cls-51" d="M375.08,297.07c-.35-2,2.06-4,7.23-5.53,9.68-2.85,25.33-2.85,34.95,0,4.8,1.38,7.19,3.26,7.18,5.13v7.08c0,1.88-2.42,3.76-7.29,5.18-9.68,2.85-25.33,2.85-34.95,0-4.78-1.38-7.18-3.26-7.18-5.11v-7.1A2,2,0,0,0,375.08,297.07Z"/><path class="cls-52" d="M399.1,289.35v21.71A65.05,65.05,0,0,1,382.37,309V291.5A65.13,65.13,0,0,1,399.1,289.35Z"/><path class="cls-3" d="M426.07,293.21V296c0,2-2.58,4-7.78,5.53-10.32,3-27,3-37.24,0-5.1-1.51-7.64-3.47-7.66-5.45v-2.77Z"/><path class="cls-40" d="M381.12,287.76c10.33-3,27-3,37.25,0s10.2,7.95-.12,11-27,3-37.24,0S370.85,290.74,381.12,287.76Z"/><path class="cls-50" d="M384,288c8.72-2.57,22.81-2.57,31.48,0s8.62,6.72-.11,9.28-22.8,2.56-31.47,0S375.33,290.57,384,288Z"/></g></g><g id="_3-2" data-name=" 3-2"><g id="_16-2" data-name=" 16-2"><path class="cls-51" d="M375.08,285.4c-.35-2,2.06-4,7.23-5.53,9.68-2.85,25.33-2.85,34.95,0,4.8,1.38,7.19,3.27,7.18,5.13v7.12c0,1.88-2.42,3.76-7.29,5.2-9.68,2.83-25.33,2.83-34.95,0-4.78-1.39-7.18-3.25-7.18-5.1v-7.11A1.5,1.5,0,0,0,375.08,285.4Z"/><path class="cls-52" d="M399.1,277.74v21.64a65,65,0,0,1-16.73-2.06V279.83A64.2,64.2,0,0,1,399.1,277.74Z"/><path class="cls-3" d="M426.07,281.53v2.76c0,2-2.58,4-7.78,5.53-10.32,3-27,3-37.24,0-5.1-1.5-7.64-3.48-7.66-5.44v-2.77Z"/><path class="cls-40" d="M381.12,276.08c10.33-3,27-3,37.25,0s10.2,7.95-.12,11-27,3-37.24,0S370.85,279.11,381.12,276.08Z"/><path class="cls-50" d="M384,276.33c8.72-2.56,22.81-2.56,31.48,0s8.62,6.72-.11,9.28-22.8,2.57-31.47,0S375.33,278.9,384,276.33Z"/></g><path class="cls-53" d="M393.57,275.53h12.18c15.81,0,23.74,8.79,0,8.79h-6.36c-3.21,0-5.82-1.38-5.82-3Z"/><path class="cls-3" d="M389.29,280.63a43.18,43.18,0,0,0,20.83,0c2.89-.84,4.34-2,4.34-3.08V280c0,1.12-1.39,2.24-4.34,3.1a43.34,43.34,0,0,1-20.81,0c-2.85-.84-4.28-1.95-4.29-3.06v-2.44C385,278.69,386.44,279.79,389.29,280.63Z"/><path class="cls-40" d="M389.42,274.49a43.3,43.3,0,0,1,20.74,0c5.74,1.7,5.71,4.45,0,6.14a43.18,43.18,0,0,1-20.83,0C383.57,278.94,383.6,276.19,389.42,274.49Z"/><path class="cls-21" d="M395.36,275.94a18.36,18.36,0,0,1,8.78,0c2.41.72,2.39,1.88,0,2.6a18.28,18.28,0,0,1-8.76,0C392.92,277.81,392.93,276.65,395.36,275.94Z"/></g><polygon class="cls-54" points="24.1 269.09 87.08 248.96 86.82 198.39 66.12 205 64.27 209.2 23.85 222.12 24.1 269.09"/><polygon class="cls-55" points="24.1 269.09 17.3 236.79 23.92 234.67 24.1 269.09"/><polygon class="cls-56" points="24.1 269.09 17.3 236.79 23.92 234.67 24.1 269.09"/><ellipse class="cls-42" cx="29.22" cy="226.62" rx="3.77" ry="2.5" transform="translate(-177.51 129.28) rotate(-57.44)"/><ellipse class="cls-57" cx="19.38" cy="230.85" rx="3.77" ry="2.5" transform="translate(-185.62 122.95) rotate(-57.44)"/><ellipse class="cls-57" cx="9.55" cy="235.09" rx="3.77" ry="2.5" transform="matrix(0.54, -0.84, 0.84, 0.54, -193.73, 116.61)"/><path class="cls-58" d="M48.93,217.51H97.71a16.3,16.3,0,0,1,16.3,16.3v0a16.3,16.3,0,0,1-16.3,16.3H48.93a0,0,0,0,1,0,0V217.51a0,0,0,0,1,0,0Z" transform="translate(162.94 467.62) rotate(180)"/><rect class="cls-59" x="74.89" y="236.55" width="17.51" height="3.61" rx="1.8" transform="translate(0.79 -0.27) rotate(0.19)"/><rect class="cls-60" x="54.83" y="236.55" width="17.51" height="3.61" rx="1.8" transform="translate(0.79 -0.21) rotate(0.19)"/><rect class="cls-20" x="54.83" y="230.43" width="17.51" height="3.61" rx="1.8" transform="translate(0.77 -0.21) rotate(0.19)"/><rect class="cls-61" x="74.55" y="230.43" width="13.25" height="3.61" rx="1.8" transform="translate(0.77 -0.27) rotate(0.19)"/><polygon class="cls-62" points="146.69 245.14 127.42 256.65 127.09 230.51 146.37 219.01 146.69 245.14"/><polygon class="cls-42" points="142.77 242.22 131.21 249.12 131.01 233.44 142.58 226.53 142.77 242.22"/><polygon class="cls-21" points="139.83 240.02 134.05 243.47 133.96 235.63 139.74 232.18 139.83 240.02"/><polygon class="cls-21" points="102.01 250.15 127.42 256.65 127.09 230.51 101.68 224.01 102.01 250.15"/><polygon class="cls-63" points="101.68 224.01 127.09 230.51 146.37 219.01 120.95 212.51 101.68 224.01"/></svg>